<?xml version="1.0" encoding="UTF-8" standalone="no"?>
<!DOCTYPE svg PUBLIC "-//W3C//DTD SVG 1.1//EN" "http://www.w3.org/Graphics/SVG/1.1/DTD/svg11.dtd">
<svg width="100%" height="100%" viewBox="0 0 2481 2481" version="1.1" xmlns="http://www.w3.org/2000/svg" xmlns:xlink="http://www.w3.org/1999/xlink" xml:space="preserve" xmlns:serif="http://www.serif.com/" style="fill-rule:evenodd;clip-rule:evenodd;stroke-miterlimit:10;">
    <g id="Layer-1" serif:id="Layer 1" transform="matrix(6.42485,0,0,6.42485,-671.779,-736.027)">
        <g transform="matrix(1,0,0,1,316.511,368.946)">
            <path d="M0,-104.788C0,-104.788 -5.517,-84.794 -15.986,-77.948C-26.456,-71.103 -33.896,-69.392 -38.721,-71.392C-44.677,-72.89 -46.858,-76.74 -46.858,-76.74C-46.858,-76.74 -51.019,-80.23 -51.422,-85.062C-51.422,-85.062 -54.643,-91.908 -57.193,-96.337C-58.828,-99.175 -59.8,-107.304 -59.9,-114.579C-59.9,-114.579 -83.233,-116.099 -95.984,-92.594L-126.588,-23.856L-120.145,-16.071C-120.145,-16.071 -106.186,-13.923 -102.696,-7.749C-99.206,-1.574 -97.058,0.573 -97.058,0.573L-95.716,11.311L34.214,11.311C34.214,11.311 33.408,0.305 35.556,0.036C37.704,-0.232 39.583,0.842 39.583,0.842C39.583,0.842 50.858,-1.037 58.643,-3.722C66.428,-6.406 72.602,-12.044 83.34,-11.239C94.078,-10.433 97.836,-8.286 97.836,-8.286C97.836,-8.286 79.313,-34.325 75.555,-40.5C71.797,-46.674 64.817,-51.238 64.012,-57.412C63.206,-63.586 48.173,-83.317 45.489,-84.727C42.804,-86.136 32.603,-98.17 22.402,-101.683C12.201,-105.196 7.1,-108.015 7.1,-108.015C7.1,-108.015 3.638,-103.038 0,-104.788" style="fill:rgb(108,110,112);fill-rule:nonzero;"/>
        </g>
        <g transform="matrix(1,0,0,1,316.5,370.475)">
            <path d="M0,-106.34C2.848,-105.029 5.506,-107.564 7.13,-109.579C12.261,-106.931 17.698,-104.939 23.134,-103.004C25.843,-101.971 28.35,-100.484 30.722,-98.836C35.482,-95.545 39.624,-91.465 43.912,-87.614C46.295,-85.915 48.339,-83.921 50.122,-81.604C53.782,-77.129 57.172,-72.436 60.223,-67.521C61.614,-65.091 63.325,-62.439 64.023,-59.71C64.827,-53.775 69.757,-49.932 73.312,-45.515C81.719,-33.388 89.976,-21.149 98.615,-9.155C96.142,-10.507 93.307,-11.143 90.537,-11.647C85.616,-12.443 80.499,-13.131 75.583,-11.949C70.633,-10.856 66.253,-8.229 61.651,-6.181C54.584,-3.29 46.952,-1.72 39.477,-0.484C38.358,-1.061 37.042,-1.392 35.781,-1.278C35.218,-1.315 34.979,-0.637 34.797,-0.046C34.622,0.568 34.534,1.22 34.463,1.869C34.209,4.562 34.302,7.304 34.469,10.013L34.224,10.013C34.164,10.054 -95.739,9.857 -95.798,9.887L-95.81,9.795L-97.139,-0.944C-99.499,-3.46 -101.415,-7.135 -103.399,-10.168C-107.586,-14.839 -114.232,-16.302 -120.149,-17.507L-120.185,-17.513L-120.207,-17.54L-126.66,-25.317C-126.848,-25.394 -96.112,-94.096 -96.154,-94.204C-90.85,-104.028 -81.829,-111.953 -70.917,-114.837C-67.332,-115.836 -63.622,-116.394 -59.877,-116.303L-59.698,-116.298L-59.695,-116.111C-59.583,-110.94 -59.275,-105.696 -58.042,-100.663C-57.452,-98.12 -55.832,-95.998 -54.73,-93.662C-53.54,-91.345 -52.393,-89.008 -51.28,-86.653C-50.965,-83.425 -49.115,-80.502 -46.748,-78.355C-45.873,-76.977 -44.591,-75.852 -43.213,-74.956C-41.813,-74.07 -40.267,-73.446 -38.666,-73.027C-31.862,-70.614 -24.741,-74.477 -18.892,-77.759C-8.344,-83.466 -3.539,-95.471 0,-106.34M0.021,-106.294C-3.407,-95.464 -8.317,-83.312 -18.809,-77.621C-26.73,-72.956 -34.773,-69.493 -43.343,-74.75C-44.71,-75.613 -46.164,-76.917 -46.931,-78.17C-49.322,-80.287 -51.303,-83.5 -51.543,-86.53C-53.455,-90.673 -55.657,-94.658 -57.759,-98.701C-58.916,-101.768 -59.282,-105.069 -59.643,-108.298C-59.901,-110.893 -60.038,-113.499 -60.084,-116.106L-59.902,-115.914C-63.566,-115.991 -67.265,-115.429 -70.803,-114.428C-81.608,-111.516 -90.535,-103.729 -95.795,-94.044C-95.764,-94.136 -126.576,-24.936 -126.495,-25.453C-126.518,-25.494 -119.892,-17.489 -120.12,-17.693C-114.165,-16.464 -107.499,-14.97 -103.275,-10.265C-101.219,-7.133 -99.468,-3.756 -96.956,-0.967C-96.957,-0.967 -95.602,9.769 -95.602,9.769C-96.25,9.552 34.376,9.607 34.224,9.551L33.994,9.799C33.834,7.144 33.752,4.487 34.001,1.821C34.206,0.702 34.217,-1.615 35.739,-1.742C37.123,-1.86 38.482,-1.521 39.709,-0.891L39.555,-0.918C46.958,-2.306 54.484,-3.71 61.46,-6.617C66.064,-8.672 70.49,-11.317 75.476,-12.42C80.458,-13.62 85.632,-12.935 90.623,-12.128C93.137,-11.658 95.627,-11.146 97.969,-10.028L97.646,-9.672C89.201,-21.356 81.132,-33.392 72.987,-45.25C69.902,-49.167 65.656,-52.57 64.145,-57.508C63.62,-61.057 61.779,-64.312 59.944,-67.351C56.921,-72.258 53.551,-76.96 49.917,-81.436C48.147,-83.752 46.109,-85.75 43.758,-87.437C39.477,-91.309 35.37,-95.386 30.623,-98.695C28.265,-100.346 25.772,-101.835 23.084,-102.871C17.658,-104.825 12.222,-106.838 7.091,-109.509C5.762,-107.511 2.726,-104.979 0.021,-106.294" style="fill:rgb(35,31,32);fill-rule:nonzero;"/>
        </g>
        <g transform="matrix(1,0,0,1,221.008,253.347)">
            <path d="M0,126.668L129.457,126.668C129.297,124.317 128.858,115.666 131.028,115.395C133.006,115.149 134.74,115.984 135.127,116.188C136.164,116.011 146.736,114.176 154.067,111.648C156.398,110.844 158.539,109.796 160.806,108.686C165.962,106.161 171.29,103.555 178.861,104.119C186.87,104.72 190.993,106.05 192.617,106.713C189.569,102.421 174.214,80.75 170.851,75.225C169.435,72.899 167.545,70.788 165.717,68.746C162.666,65.34 159.784,62.121 159.275,58.218C158.475,52.088 143.516,32.47 140.879,31.086C140.047,30.649 138.603,29.306 136.604,27.447C131.954,23.123 124.928,16.59 117.826,14.144C108.791,11.033 103.689,8.432 102.674,7.896C102.017,8.773 98.981,12.481 95.659,11.143C94.949,13.557 89.412,31.469 79.649,37.853C69.653,44.388 61.928,46.601 56.69,44.43C50.983,42.997 48.715,39.449 48.456,39.016C48.034,38.653 44.255,35.282 43.844,30.6C43.577,30.037 40.517,23.58 38.1,19.382C36.369,16.376 35.473,7.928 35.364,1.252C32.951,1.189 11.599,1.243 -0.27,23.119L-30.803,91.704L-24.515,99.303C-23.195,99.515 -10.38,101.72 -6.983,107.731C-3.556,113.794 -1.406,115.979 -1.385,116.001L-1.326,116.059L0,126.668ZM129.976,127.151L-0.427,127.151L-1.785,116.282C-2.159,115.888 -4.211,113.616 -7.404,107.969C-10.795,101.968 -24.541,99.788 -24.679,99.767L-24.77,99.752L-31.367,91.782L-0.703,22.906C11.985,-0.483 35.383,0.764 35.618,0.778L35.841,0.793L35.844,1.016C35.935,7.666 36.811,16.175 38.519,19.141C41.045,23.528 44.267,30.365 44.299,30.434L44.321,30.516C44.711,35.194 48.759,38.639 48.8,38.673L48.854,38.739C48.876,38.777 51.066,42.52 56.841,43.972C61.955,46.09 69.53,43.891 79.384,37.448C89.656,30.731 95.215,10.945 95.27,10.746L95.347,10.467L95.608,10.593C99.016,12.232 102.371,7.494 102.405,7.446L102.529,7.267L102.72,7.372C102.771,7.4 107.924,10.223 117.984,13.687C125.182,16.166 132.254,22.742 136.933,27.093C138.83,28.857 140.329,30.252 141.104,30.658C143.778,32.062 158.944,51.944 159.754,58.155C160.244,61.911 163.077,65.074 166.076,68.424C167.919,70.482 169.825,72.61 171.264,74.974C174.975,81.07 193.351,106.913 193.536,107.173L194.168,108.062L193.22,107.523C193.182,107.502 189.36,105.391 178.825,104.601C171.383,104.04 166.116,106.624 161.019,109.12C158.838,110.187 156.584,111.292 154.224,112.105C146.509,114.766 135.238,116.66 135.125,116.679L135.041,116.693L134.965,116.65C134.948,116.639 133.128,115.619 131.088,115.875C129.69,116.05 129.653,122.725 129.958,126.892L129.976,127.151Z" style="fill:rgb(108,110,112);fill-rule:nonzero;"/>
        </g>
        <g transform="matrix(1,0,0,1,350.966,254.45)">
            <path d="M0,126.032C-0.162,122.509 -0.581,118.711 0.522,115.296C0.646,115.004 0.93,114.683 1.29,114.712C2.575,114.603 4.08,114.951 5.074,115.538C10.128,114.639 15.161,113.577 20.106,112.198C25.126,110.956 29.682,108.57 34.315,106.346C38.963,104.139 44.15,102.881 49.313,103.402C53.157,103.716 57.013,104.211 60.726,105.297C61.965,105.654 63.202,106.138 64.29,106.819L64.078,107.054C56.498,96.337 48.793,85.701 41.574,74.731C38.666,69.618 33.772,66.037 30.858,60.919C29.877,59.319 29.654,57.45 29.2,55.69C28.34,53.309 27.092,51.083 25.786,48.915C21.744,42.472 17.324,36.143 12.065,30.629C6.579,26.425 1.962,21.166 -3.768,17.259C-6.144,15.6 -8.652,14.092 -11.357,13.071C-16.845,11.125 -22.342,9.085 -27.541,6.368L-27.239,6.298C-28.838,8.546 -31.84,11.144 -34.711,9.573L-34.389,9.427C-35.702,13.943 -37.434,18.317 -39.503,22.535C-41.62,26.704 -44.088,30.837 -47.486,34.1C-53.055,39.079 -65.733,46.166 -73.19,43.047C-76.235,42.308 -79.573,40.357 -81.297,37.686C-83.566,35.671 -85.565,32.453 -85.822,29.375C-86.866,27.172 -88.105,24.651 -89.274,22.379C-90.393,20.013 -92.028,17.872 -92.615,15.283C-93.845,10.181 -94.139,4.919 -94.249,-0.308L-94.126,-0.179C-101.556,-0.335 -109.089,1.84 -115.428,5.694C-121.027,9.066 -125.76,13.866 -129.132,19.447L-130.592,21.841C-130.519,21.675 -161.335,91.372 -161.199,90.575L-154.593,98.538L-154.701,98.477C-148.749,99.697 -142.078,101.14 -137.838,105.837C-135.786,108.942 -134.1,112.283 -131.592,115.035L-131.545,115.089L-131.536,115.153L-130.166,126.022C-131.589,125.606 0.361,126.117 0,126.032M0.037,126.066C-0.184,125.872 -130.744,126.643 -130.604,126.077C-130.604,126.076 -131.951,115.205 -131.951,115.205C-133.18,113.862 -135.079,111.211 -136.212,109.225C-137.423,107.054 -138.67,104.952 -140.876,103.674C-145.052,100.966 -150.07,99.763 -154.863,98.762L-161.451,90.784L-161.516,90.705L-161.475,90.613C-161.474,90.608 -130.731,21.77 -130.73,21.766L-129.271,19.361C-123.987,10.5 -115.219,3.762 -105.244,1.033C-101.634,0.115 -97.844,-0.611 -94.109,-0.441L-93.988,-0.436L-93.986,-0.312C-93.947,2.297 -93.81,4.904 -93.563,7.501C-93.087,11.327 -92.859,15.394 -90.844,18.775C-88.938,22.215 -87.186,25.737 -85.496,29.288C-85.309,30.876 -84.824,32.425 -83.992,33.803C-83.19,35.21 -82.107,36.443 -80.948,37.547C-79.15,40.221 -76.132,41.901 -73.056,42.688C-70.912,43.554 -68.518,43.594 -66.239,43.213C-61.649,42.382 -57.404,40.233 -53.419,37.865C-51.423,36.651 -49.419,35.441 -47.798,33.775C-44.439,30.546 -42.007,26.462 -39.911,22.332C-37.817,18.063 -36.067,13.609 -34.757,9.042C-31.945,10.741 -29.056,8.1 -27.5,5.865C-22.296,8.601 -16.755,10.66 -11.19,12.63C-8.43,13.671 -5.894,15.198 -3.495,16.87C1.312,20.207 5.483,24.36 9.812,28.25C10.922,29.211 12.237,29.918 13.176,31.063C19.391,38.196 25.242,45.906 29.273,54.499C29.488,55.059 29.855,56.008 29.949,56.627C30.811,62.551 36.06,66.319 39.475,70.861C47.616,82.956 55.862,94.992 64.343,106.866C64.342,106.866 64.821,107.543 64.821,107.543L64.13,107.101C61.95,105.744 59.393,105.218 56.91,104.683C51.905,103.818 46.697,103.011 41.661,104.077C36.59,105.075 32.11,107.75 27.439,109.839C20.317,112.837 12.617,114.261 5.056,115.637C3.915,115.029 2.595,114.689 1.299,114.803C0.958,114.78 0.739,115.046 0.601,115.335C-0.517,118.771 -0.075,122.495 0.037,126.066" style="fill:rgb(35,31,32);fill-rule:nonzero;"/>
        </g>
        <g transform="matrix(1,0,0,1,220.991,255.025)">
            <path d="M0,125.009C0.015,125.032 -1.386,114.284 -1.341,114.413C-3.91,111.641 -5.624,108.236 -7.684,105.118C-11.906,100.409 -18.578,98.909 -24.55,97.716C-24.572,97.69 -30.852,90.129 -30.876,90.1L-30.922,90.045C-30.94,89.992 -0.478,21.401 -0.481,21.34C1.382,18.169 3.362,15.025 5.932,12.364C13.331,4.174 24.346,-0.641 35.387,-0.667L35.618,-0.665L35.622,-0.43C35.837,5.311 36.02,11.262 37.917,16.727C40.004,20.723 42.179,24.718 44.073,28.822C44.398,32.089 46.281,35.041 48.673,37.219C50.499,40.006 53.621,41.72 56.795,42.539C61.197,44.272 66.09,42.837 70.276,41.077C74.488,39.138 78.741,36.948 82.212,33.834C88.933,27.269 92.633,18.213 95.489,9.411L95.55,9.21C96.852,9.798 98.353,9.572 99.557,8.843C100.764,8.133 101.791,7.108 102.638,5.985L102.777,6.056C107.859,8.659 113.224,10.673 118.62,12.586C121.316,13.612 123.796,15.112 126.145,16.753C131.814,20.561 136.281,25.849 141.731,29.89C143.023,31.115 144.222,32.503 145.344,33.878C148.968,38.317 152.311,42.98 155.341,47.843C157.173,50.905 159.067,54.057 159.599,57.64C160.942,62.549 165.087,65.925 168.186,69.752C176.442,81.417 184.316,93.392 192.742,104.959C192.741,104.959 192.998,105.321 192.998,105.321L192.583,105.158C187.938,103.42 182.896,102.871 177.97,102.547C170.312,101.992 163.575,105.941 156.879,109.062C149.948,111.927 142.515,113.317 135.178,114.71C133.967,114.203 132.628,113.756 131.282,113.903C130.66,113.87 130.356,114.484 130.141,115.08C129.262,118.273 129.549,121.685 129.694,124.975C129.985,125.676 0.226,124.765 0,125.009M0.033,124.971C-0.025,125.069 130.427,124.42 129.254,125.004C129.095,122.326 129.005,119.635 129.318,116.946C129.47,115.935 129.606,114.853 130.237,113.992C130.441,113.686 130.9,113.48 131.246,113.491C132.633,113.381 134.01,113.711 135.238,114.331C141.833,112.954 150.056,111.585 156.738,108.738C159.016,107.749 161.221,106.587 163.488,105.54C165.752,104.493 168.087,103.552 170.527,102.97C175.41,101.694 180.511,102.303 185.427,103.055C187.887,103.47 190.345,103.988 192.683,104.913L192.525,105.112C184.133,93.528 176.289,81.538 168.065,69.853C164.974,66.01 160.776,62.622 159.425,57.684C158.887,54.122 156.997,50.992 155.166,47.95C152.133,43.105 148.78,38.454 145.155,34.034C144.032,32.669 142.851,31.293 141.56,30.083C136.097,26.055 131.637,20.792 125.969,17.004C123.63,15.379 121.165,13.897 118.503,12.892C113.112,10.995 107.724,8.989 102.605,6.382L102.838,6.329C101.985,7.443 100.97,8.445 99.746,9.171C98.525,9.913 96.961,10.191 95.603,9.646L95.861,9.52C93.002,18.4 89.296,27.538 82.519,34.164C79.012,37.316 74.722,39.532 70.456,41.497C66.16,43.302 61.173,44.757 56.618,42.966C53.508,42.191 50.114,40.331 48.273,37.457C46.106,35.664 43.767,31.871 43.648,29.023C41.745,24.899 39.573,20.933 37.478,16.908C35.543,11.363 35.363,5.39 35.139,-0.422L35.374,-0.185C31.749,-0.214 28.114,0.388 24.62,1.38C17.646,3.387 11.15,7.3 6.297,12.7C3.771,15.293 1.772,18.507 -0.025,21.543C0.008,21.442 -30.784,90.513 -30.697,89.953C-30.735,89.914 -24.238,97.736 -24.482,97.529C-18.497,98.757 -11.802,100.282 -7.583,105.039C-5.528,108.175 -3.832,111.572 -1.278,114.35C-1.249,114.366 0.02,124.945 0.033,124.971" style="fill:rgb(35,31,32);fill-rule:nonzero;"/>
        </g>
        <g opacity="0.14">
            <g transform="matrix(1,0,0,1,397.808,357.559)">
                <path d="M0,-0.033C0.046,-0.014 0.078,0 0.078,0C0.078,0 0.05,-0.013 0,-0.033" style="fill:rgb(3,4,5);fill-rule:nonzero;"/>
            </g>
        </g>
        <g opacity="0.14">
            <g transform="matrix(1,0,0,1,214.805,292.198)">
                <path d="M0,50.48C-1.611,63.361 -2.471,22.834 1.55,5.714C5.571,-11.406 15.737,-26.911 15.117,-18.955C14.939,-16.681 14.315,-10.286 13.537,-1.894C10.959,3.013 8.585,10.013 7.204,19.246L7.34,11.34C7.34,11.34 1.611,37.599 0,50.48M162.311,63.965C154.627,68.193 157.745,34.264 148.184,39.738C138.623,45.211 138.494,28.194 141.326,18.799C144.158,9.403 146.574,-2.14 152.748,4.571C158.922,11.282 162.311,10.966 162.311,10.966C162.311,10.966 152.918,-2.539 150.99,-4.657C149.061,-6.775 136.229,-18.342 132.73,-20.563C129.23,-22.784 109.259,-31.267 109.259,-31.267L43.156,-37.804C43.156,-37.804 22.868,-38.17 11.031,-23.108L-24.284,52.565L-19.899,60.493L-14.362,61.482C-14.362,61.482 -3.702,63.874 -0.537,68.999C2.628,74.124 6.174,79.133 6.174,79.133L6.602,54.264C7.775,82.35 6.443,88.059 6.443,88.059L49.075,88.65L42.25,85.688C23.059,74.439 21.442,52.912 38.092,64.301C54.742,75.69 97.951,76.804 55.234,62.803C12.525,48.805 21.202,-10.49 21.206,-10.513C22.241,-15.436 23.293,-19.138 24.339,-20.915C31.14,-32.475 40.743,-32.442 42.25,-20.915C43.757,-9.389 45.502,-7.017 50.938,1.864C56.374,10.745 65.189,14.476 76.352,9.255C87.515,4.034 93.166,-0.096 99.334,-10.514C105.501,-20.932 104.657,-23.958 113.938,-18.955C123.218,-13.952 133.034,-15.666 132.556,-10.514C132.077,-5.362 123.755,11.842 125.098,31.562C126.44,51.281 126.781,79.776 126.781,79.776L137.617,78.225C137.617,78.225 158.396,75.615 168.726,69.488C178.247,63.841 182.41,65.096 183.003,65.327C181.968,64.895 169.667,59.917 162.311,63.965" style="fill:rgb(3,4,5);fill-rule:nonzero;"/>
            </g>
        </g>
        <g transform="matrix(1,0,0,1,327.258,379.747)">
            <path d="M0,26.513L-127.524,26.513L-127.597,26.426L-149.63,0L-57.71,0L-57.658,0.024L0,26.513Z" style="fill:white;fill-rule:nonzero;"/>
        </g>
        <g transform="matrix(1,0,0,1,199.976,380.182)">
            <path d="M0,25.643L125.273,25.643L69.457,0L-21.381,0L0,25.643Z" style="fill:white;fill-rule:nonzero;stroke:rgb(3,4,4);stroke-width:1px;"/>
        </g>
        <g opacity="0.23">
            <g transform="matrix(1,0,0,1,242.699,384.887)">
                <path d="M0,16.016C-23.852,16.016 -43.188,12.016 -43.188,7.081C-43.188,2.146 -23.852,-1.854 0,-1.854C23.852,-1.854 43.188,2.146 43.188,7.081C43.188,12.016 23.852,16.016 0,16.016M27.858,-4.922L-63.521,-4.922L-41.778,20.938L84.621,20.938L27.858,-4.922Z" style="fill:rgb(3,4,5);fill-rule:nonzero;"/>
            </g>
        </g>
        <g transform="matrix(1,0,0,1,317.705,187.309)">
            <path d="M0,67.045C0,67.045 2.416,61.273 6.174,57.649C9.933,54.025 12.483,44.898 13.825,35.502C15.167,26.106 10.47,16.576 5.101,12.55C-0.268,8.523 -1.074,5.167 -3.893,4.765C-6.711,4.362 -8.59,1.543 -12.886,1.409C-17.181,1.275 -17.181,-0.47 -25.1,0.604C-33.019,1.677 -34.093,2.483 -37.851,5.302C-41.61,8.12 -47.381,11.476 -50.603,18.59C-50.603,18.59 -54.764,26.845 -56.777,36.509C-56.777,36.509 -57.784,40.536 -57.784,45.972C-57.784,45.972 -54.764,35.703 -52.348,32.079C-49.932,28.455 -44.496,26.039 -40.469,29.261C-36.442,32.482 -35.435,37.314 -30.201,38.12C-24.966,38.925 -22.751,38.321 -18.724,36.71C-14.698,35.099 -6.443,35.301 -6.04,46.173C-5.637,57.045 -1.007,57.851 -1.007,62.683C-1.007,67.515 0,67.045 0,67.045" style="fill:rgb(3,4,5);fill-rule:nonzero;"/>
        </g>
        <g transform="matrix(1,0,0,1,259.921,278.582)">
            <path d="M0,-45.301C0,-45.301 3.02,-55.569 5.436,-59.193C7.852,-62.817 13.288,-65.233 17.315,-62.012C21.342,-58.791 22.348,-53.959 27.583,-53.153C32.818,-52.348 35.033,-52.952 39.059,-54.563C43.086,-56.173 51.341,-55.972 51.744,-45.1C52.146,-34.227 56.777,-33.422 56.777,-28.59C56.777,-23.758 57.784,-24.228 57.784,-24.228C57.784,-24.228 59.136,-27.458 61.391,-30.603C61.391,-30.603 63.958,-34.697 67.045,-32.013C70.133,-29.328 65.837,-20.335 63.69,-17.651C61.542,-14.966 57.515,-12.953 56.844,-15.1C56.844,-15.1 49.596,4.899 40.335,10.268C31.073,15.637 27.181,19.932 19.798,19.261C12.416,18.59 9.731,13.624 9.731,13.624C9.731,13.624 5.57,10.134 5.168,5.302C5.168,5.302 1.946,-1.544 -0.604,-5.973C-3.154,-10.403 -4.094,-27.718 -2.617,-34.563C-1.141,-41.408 -0.37,-39.499 0,-45.301" style="fill:white;fill-rule:nonzero;"/>
        </g>
        <g transform="matrix(1,0,0,1,259.945,279.687)">
            <path d="M0,-46.402C-0.057,-44.183 -0.526,-42.031 -1.411,-40.002C-2.111,-37.928 -2.628,-35.78 -2.896,-33.608C-3.567,-27.07 -3.234,-20.426 -2.31,-13.928C-1.949,-11.798 -1.587,-9.584 -0.681,-7.619C1.444,-3.766 3.525,0.174 5.385,4.177C5.684,7.392 7.594,10.26 9.916,12.406C12.837,16.999 18.976,18.734 24.138,17.692C26.787,17.165 29.189,15.808 31.502,14.394C34.633,12.396 37.854,10.355 41.049,8.435C44.655,5.869 47.258,2.17 49.575,-1.553C52.464,-6.33 54.849,-11.42 56.835,-16.639L56.956,-16.248C57.586,-14.605 59.858,-15.828 60.889,-16.451C63.637,-18.122 65.185,-21.066 66.435,-23.928C67.322,-26.098 68.152,-28.424 67.975,-30.795C67.919,-32.385 66.658,-33.766 65.08,-33.929C62.537,-34.046 61.223,-31.353 60.031,-29.516C59.212,-28.143 58.466,-26.719 57.833,-25.254C56.366,-25.02 56.798,-29.957 56.515,-30.918C56.15,-32.886 54.826,-34.479 53.94,-36.241C52.997,-38.013 52.377,-39.95 52.02,-41.921C51.623,-43.844 51.633,-45.925 51.416,-47.872C50.997,-51.881 48.647,-55.574 44.399,-56.095C42.462,-56.371 40.462,-56.075 38.658,-55.289C36.811,-54.547 34.868,-53.894 32.842,-53.757C31.084,-53.623 29.321,-53.807 27.587,-54.073C26.335,-54.286 25.112,-54.738 24.085,-55.496C21.643,-57.294 20.302,-60.164 18.127,-62.2C15.197,-65.371 10.666,-65.065 7.474,-62.426C5.875,-61.206 4.86,-59.446 4.05,-57.637C2.43,-53.999 1.168,-50.204 0,-46.402M-0.048,-46.41C1.109,-50.23 2.354,-54.021 3.964,-57.676C4.777,-59.495 5.783,-61.292 7.384,-62.537C10.626,-65.266 15.264,-65.624 18.307,-62.388C21.287,-59.573 23.112,-54.952 27.641,-54.428C29.345,-54.179 31.093,-54.011 32.81,-54.155C34.778,-54.296 36.653,-54.969 38.502,-55.687C40.354,-56.482 42.447,-56.787 44.457,-56.487C48.866,-55.921 51.342,-52.071 51.746,-47.914C51.953,-45.97 51.93,-43.894 52.316,-41.975C52.659,-40.026 53.256,-38.119 54.177,-36.364C55.06,-34.587 56.386,-32.968 56.744,-30.96C57.033,-29.236 56.673,-27.458 57.319,-25.811C57.408,-25.653 57.534,-25.394 57.718,-25.422C58.114,-26.576 59.148,-28.329 59.886,-29.604C61.126,-31.49 62.477,-34.197 65.093,-34.087C66.753,-33.927 68.094,-32.463 68.154,-30.814C68.347,-28.403 67.517,-26.046 66.631,-23.846C65.38,-20.937 63.81,-17.943 61.027,-16.234C59.866,-15.481 57.396,-14.286 56.685,-16.163L56.954,-16.157C53.989,-8.537 50.476,-0.933 45.118,5.328C43.989,6.61 42.707,7.815 41.298,8.799C40.712,9.195 39.275,10.032 38.662,10.4C33.939,13.106 29.671,16.905 24.232,18.141C18.857,19.222 12.542,17.428 9.499,12.631C7.372,10.786 5.139,7.439 4.903,4.217C3.211,0.664 1.044,-3.712 -1.009,-7.46C-1.927,-9.498 -2.257,-11.699 -2.61,-13.882C-3.472,-20.416 -3.762,-27.065 -3.04,-33.626C-2.754,-35.811 -2.221,-37.955 -1.502,-40.035C-0.598,-42.063 -0.126,-44.188 -0.048,-46.41" style="fill:rgb(3,4,5);fill-rule:nonzero;"/>
        </g>
        <g opacity="0.23">
            <g transform="matrix(1,0,0,1,282.58,289.111)">
                <path d="M0,-66.442C-1.704,-68.29 -3.022,-70.684 -5.344,-72.542C-9.371,-75.763 -14.807,-73.347 -17.223,-69.723C-19.639,-66.099 -22.659,-55.831 -22.659,-55.831C-23.029,-50.028 -23.8,-51.938 -25.276,-45.093C-26.753,-38.247 -25.813,-20.932 -23.263,-16.503C-20.713,-12.073 -17.491,-5.228 -17.491,-5.228C-17.089,-0.396 -12.928,3.094 -12.928,3.094C-12.928,3.094 -10.243,8.061 -2.861,8.732C4.522,9.403 8.414,5.108 17.676,-0.261C26.937,-5.63 34.185,-25.63 34.185,-25.63C34.856,-23.482 38.883,-25.496 41.031,-28.18C43.178,-30.865 47.474,-39.858 44.386,-42.542C41.299,-45.227 38.732,-41.133 38.732,-41.133C36.477,-37.988 35.125,-34.757 35.125,-34.757C35.125,-34.757 34.118,-34.287 34.118,-39.12C34.118,-43.952 29.487,-44.757 29.085,-55.629C28.682,-66.501 20.427,-66.703 16.4,-65.092C16.4,-65.092 21.837,-65.36 22.508,-59.723C23.179,-54.086 14.991,-41.468 17.139,-33.683C19.286,-25.898 21.702,-25.718 22.642,-21.849C23.582,-17.979 20.494,-11.805 14.588,-8.315C8.683,-4.825 7.34,-4.959 4.119,-10.06C0.897,-15.16 4.119,-10.06 4.119,-10.06C4.119,-10.06 1.44,-14.351 -0.965,-15.226C-3.37,-16.101 -0.965,-15.226 -0.965,-15.226C-0.965,-15.226 0.953,-12.649 -0.686,-10.012C-2.324,-7.375 -0.686,-10.012 -0.686,-10.012C-0.686,-10.012 -2.055,-7.802 -5.411,-9.401L-7.626,-8.264C-7.626,-8.264 -4.748,-7.881 -3.804,-7.427C-2.861,-6.973 0.763,-7.863 0.897,-12.451C0.897,-12.451 3.045,-11.103 4.119,-7.427C5.193,-3.751 6.401,-2.208 4.253,-1.57C2.106,-0.933 -0.965,0.078 -0.965,0.078C-0.965,0.078 3.219,-1.067 3.401,1.752C3.582,4.571 -3.801,6.59 -8.364,4.842C-12.928,3.094 -8.364,4.842 -8.364,4.842C-8.364,4.842 -17.089,2.344 -16.753,-6.14C-16.753,-6.14 -16.072,-9.657 -18.057,-11.268C-20.042,-12.879 -20.875,-14.525 -19.387,-15.664C-17.899,-16.802 -14.27,-17.576 -12.995,-19.321C-11.72,-21.066 -10.512,-23.984 -9.438,-25.68C-8.364,-27.375 -10.325,-30.06 -15.655,-35.418C-20.986,-40.775 -17.89,-34.717 -17.89,-34.717C-17.89,-34.717 -14.136,-31.557 -12.995,-30.137C-11.854,-28.717 -14.941,-27.71 -16.753,-28.18C-18.565,-28.65 -22.189,-31.402 -22.122,-34.22C-22.055,-37.039 -23.263,-29.948 -18.699,-27.319C-14.136,-24.69 -11.317,-27.34 -11.317,-25.68C-11.317,-24.019 -12.645,-20.71 -15.655,-18.516C-18.666,-16.322 -23.263,-14.474 -24.203,-23.676C-25.142,-32.878 -25.947,-31.472 -24.605,-36.68C-23.263,-41.888 -24.48,-45.585 -20.986,-40.775C-17.491,-35.965 -14.222,-38.784 -15.655,-43.079C-17.089,-47.374 -19.666,-58.137 -16.753,-65.495C-13.841,-72.852 -6.803,-75.845 0,-66.442" style="fill:rgb(3,4,5);fill-rule:nonzero;"/>
            </g>
        </g>
        <g transform="matrix(1,0,0,1,260.202,255.436)">
            <path d="M0,-6.081C0.783,-5.395 2.025,-4.445 3.041,-3.181C5.055,-0.675 7.169,1.831 9.383,2.207C9.383,2.207 7.571,-1.051 5.357,-3.306C3.875,-4.815 2.574,-6.379 1.392,-7.1C1.392,-7.1 0.273,-8.137 -0.885,-8.213C-2.043,-8.288 -2.798,-7.08 -2.923,-6.25C-3.049,-5.419 -1.909,-7.976 0,-6.081" style="fill:rgb(3,4,5);fill-rule:nonzero;"/>
        </g>
        <g transform="matrix(-0.0688042,0.99763,0.99763,0.0688042,291.68,254.249)">
            <path d="M8.45,-8.702C8.45,-8.702 7.666,-7.281 8.048,-2.051C8.429,3.178 8.45,7.91 8.45,7.91C8.45,7.91 8.891,6.695 9.342,-3.028C9.498,-5.95 9.762,-8.521 8.45,-8.702" style="fill:rgb(3,4,5);fill-rule:nonzero;"/>
        </g>
        <g transform="matrix(1,0,0,1,267.527,282.019)">
            <path d="M0,-10.335C-1.82,-9.914 -2.772,-8.464 -2.367,-6.652C-2.212,-5.725 -1.89,-4.81 -0.91,-4.49C-0.288,-4.242 0.514,-3.909 1.01,-3.306C1.396,-2.877 1.609,-2.394 1.931,-1.95C2.441,-1.271 3.178,-0.696 4.025,-0.566C5.626,-0.307 7.027,-1.309 8.28,-2.171C9.468,-2.883 10.941,-1.75 12.074,-1.948C13.903,-2.308 15.103,-4.496 14.4,-6.263C13.982,-7.448 13.073,-8.855 11.691,-8.961L11.675,-9.056C13.234,-9.283 14.492,-7.828 15.11,-6.539C16.049,-4.666 15.171,-2.349 13.391,-1.34C12.367,-0.642 10.862,-1.018 9.91,-1.385C9.446,-1.515 9.068,-1.643 8.669,-1.448C7.882,-0.998 7.083,-0.551 6.185,-0.33C4.498,0.181 2.766,-0.372 1.659,-1.73C1.327,-2.13 1.01,-2.598 0.632,-2.923C0.133,-3.377 -0.471,-3.53 -1.189,-3.735C-2.885,-4.153 -3.33,-6.16 -3.192,-7.687C-3.107,-9.296 -1.552,-10.516 -0.007,-10.431L0,-10.335" style="fill:rgb(3,4,5);fill-rule:nonzero;"/>
        </g>
        <g transform="matrix(1,0,0,1,265.089,294.872)">
            <path d="M0,-10.989C0.429,-7.782 2.301,-4.898 4.881,-3.004C7.496,-1.172 10.878,-1.013 13.976,-1.518C16.043,-1.928 18.268,-2.507 19.731,-4.143C18.563,-2.208 16.224,-1.331 14.129,-0.779C10.858,0 7.111,-0.197 4.329,-2.276C1.705,-4.338 -0.164,-7.601 0,-10.989" style="fill:rgb(3,4,5);fill-rule:nonzero;"/>
        </g>
        <g transform="matrix(1,0,0,1,265.864,290.315)">
            <path d="M0,-6.127C1.962,-4.133 4.183,-2.126 6.915,-1.369C7.319,-1.272 8.415,-1.182 8.845,-1.141C10.631,-0.959 12.22,-1.082 13.991,-1.461C15.792,-1.678 17.834,-1.52 19.253,-0.296L19.196,-0.218C17.621,-0.912 15.803,-0.821 14.164,-0.51C12.439,0 10.511,-0.086 8.76,-0.372C7.957,-0.493 6.833,-0.626 6.09,-0.954C3.589,-2.029 1.637,-4.025 -0.074,-6.065L0,-6.127" style="fill:rgb(3,4,5);fill-rule:nonzero;"/>
        </g>
        <g transform="matrix(1,0,0,1,269.371,285.744)">
            <path d="M0,-4.959C0,-4.963 -0.429,-5.058 -0.97,-4.671C-1.511,-4.291 -1.883,-4.18 -1.882,-4.178C-1.569,-4.201 -1.256,-4.226 -0.943,-4.251C-0.943,-4.247 -1.852,-3.827 -2.161,-3.42C-2.161,-3.419 -1.957,-3.534 -1.318,-3.443C-1.317,-3.436 -2.401,-3.051 -2.446,-2.213C-2.446,-2.209 -1.867,-2.544 -1.495,-2.538C-1.495,-2.526 -2.117,-2.115 -1.238,-1.537C-0.359,-0.939 0.322,-0.885 1.374,-1.087C2.425,-1.302 3.103,-0.692 3.104,-0.682C3.013,-0.909 2.922,-1.134 2.832,-1.356C2.832,-1.354 4.526,-0.895 5.248,0.333C5.167,-0.038 5.085,-0.405 5.004,-0.768C5.001,-0.813 6.648,1.075 7.832,0.302C7.832,0.306 7.082,0.208 6.566,-0.645C6.564,-0.671 7.835,0.433 8.419,-1.643C8.419,-1.64 7.946,-1.507 7.535,-1.965C7.536,-1.945 8.605,-2.929 8.174,-4.968C8.174,-4.966 7.884,-3.973 7.447,-3.827C7.447,-3.818 7.66,-5.682 6.785,-6.034C6.79,-5.942 4.215,-3.646 2.496,-4.06C0.783,-4.376 0,-4.968 0,-4.959" style="fill:rgb(3,4,5);fill-rule:nonzero;"/>
        </g>
        <g transform="matrix(1,0,0,1,276.641,286.689)">
            <path d="M0,-0.459C0,-0.459 2.81,-0.003 4.974,0.853C4.974,0.853 0.784,-0.857 -0.292,-1.085C-1.368,-1.312 0,-0.459 0,-0.459" style="fill:white;fill-rule:nonzero;"/>
        </g>
        <g transform="matrix(1,0,0,1,276.729,287.013)">
            <path d="M0,-1.014C0.056,-1.004 0.158,-0.987 0.298,-0.961C0.145,-1.011 0.005,-1.056 -0.118,-1.091C-0.079,-1.065 -0.04,-1.039 0,-1.014M4.798,0.753C2.683,-0.083 -0.099,-0.54 -0.126,-0.545L-0.216,-0.578C-1.149,-1.16 -1.064,-1.37 -1.014,-1.495C-0.905,-1.767 -0.53,-1.688 -0.33,-1.646C0.754,-1.416 4.806,0.234 4.978,0.304L4.798,0.753Z" style="fill:rgb(3,4,5);fill-rule:nonzero;"/>
        </g>
        <g transform="matrix(1,0,0,1,280.314,285.941)">
            <path d="M0,-12.743C2.728,-11.684 5.411,-9.89 6.689,-7.153C7.274,-5.824 8.007,-4.616 8.729,-3.399C9.479,-2.198 10.258,-0.993 11.372,-0.088L11.331,0C10.603,-0.219 9.972,-0.68 9.414,-1.179C7.723,-2.673 6.7,-4.78 5.975,-6.856C5.48,-8.167 4.573,-9.297 3.536,-10.243C2.478,-11.201 1.269,-12.025 -0.035,-12.653L0,-12.743Z" style="fill:rgb(3,4,5);fill-rule:nonzero;"/>
        </g>
        <g transform="matrix(1,0,0,1,285.558,269.665)">
            <path d="M0,-4.17C1.022,-4.643 1.9,-3.298 2.428,-2.61C3.816,-0.995 6.409,-0.776 8.375,-1.333C9.644,-1.661 10.534,-2.648 11.617,-3.328C12.187,-3.68 12.762,-4.061 13.422,-4.23C12.862,-3.87 12.392,-3.405 11.911,-2.956C11.429,-2.505 10.973,-2.037 10.494,-1.574C8.263,0.473 4.274,0.436 2.21,-1.814C1.683,-2.453 1.486,-3.319 0.853,-3.875C0.624,-4.08 0.321,-4.264 0,-4.17" style="fill:rgb(3,4,5);fill-rule:nonzero;"/>
        </g>
        <g transform="matrix(1,0,0,1,260.458,262.401)">
            <path d="M0,-6.302C1.332,-4.798 2.723,-3.348 4.199,-2.018C5.264,-1.007 6.703,-0.814 8.137,-0.922C8.637,-0.925 9.24,-0.924 9.664,-0.597C8.62,-0.783 7.713,-0.174 6.648,-0.177C4.363,0 2.729,-1.967 1.491,-3.595C0.882,-4.424 0.329,-5.316 0,-6.302" style="fill:rgb(3,4,5);fill-rule:nonzero;"/>
        </g>
        <g transform="matrix(1,0,0,1,318.238,251.931)">
            <path d="M0,4.508C1.451,4.31 3.107,3.459 3.147,1.847C3.16,0.817 3.098,-0.288 3.438,-1.31C3.74,-2.407 4.756,-3.241 5.823,-3.544C6.367,-3.765 7.175,-3.777 7.65,-3.315C9.197,-1.632 8.317,1.377 7.226,3.074C6.595,4.018 5.812,4.673 5.274,5.499C4.697,6.31 4.782,7.527 4.051,8.285L3.967,8.237C4.342,7.468 4.299,6.784 4.393,5.965C4.694,4.647 5.767,3.672 6.406,2.562C7.109,1.312 7.642,-0.132 7.56,-1.576C7.519,-2.031 7.39,-2.49 7.129,-2.743C6.543,-3.289 5.324,-2.682 4.756,-2.262C4.015,-1.689 3.753,-0.669 3.647,0.328C3.527,1.338 3.676,2.572 2.879,3.375C2.139,4.176 1.058,4.511 0.007,4.604L0,4.508" style="fill:rgb(3,4,5);fill-rule:nonzero;"/>
        </g>
        <g transform="matrix(1,0,0,1,318.614,257.191)">
            <path d="M0,1.354C0.412,0.849 0.918,0.429 1.55,0.199C1.868,0.084 2.259,-0.074 2.642,0.08C3.015,0.229 3.316,0.551 3.354,0.954L3.285,1.023C2.455,1.015 2.473,1.041 1.724,0.953C1.166,0.995 0.587,1.192 0.062,1.428L0,1.354Z" style="fill:rgb(3,4,5);fill-rule:nonzero;"/>
        </g>
        <g transform="matrix(1,0,0,1,267.631,276.963)">
            <path d="M0,-5.632C-0.715,-5.213 -1.419,-4.891 -2.087,-4.532C-2.653,-4.228 -3.527,-3.866 -3.988,-3.428C-4.213,-3.224 -4.6,-2.823 -4.843,-2.603C-5.362,-2.084 -6.079,-1.642 -6.044,-0.843C-6.029,-0.477 -5.905,-0.097 -5.766,0.272L-5.852,0.315C-7.004,-1.417 -6.011,-2.173 -4.926,-3.489C-3.836,-5.081 -1.921,-5.947 -0.017,-5.727L0,-5.632" style="fill:rgb(3,4,5);fill-rule:nonzero;"/>
        </g>
        <g transform="matrix(1,0,0,1,213.264,376.782)">
            <path d="M0,-16.419L4.22,-9.74L6.189,-7.263C6.189,-7.263 5.45,-1.827 2.095,0.052C-1.261,1.931 -13.409,0.522 -13.409,0.522L-14.294,0.433C-14.294,0.433 -14.885,3.542 -19.314,2.334L-31.295,3.864L-33.676,-1.76L-19.717,-20.283L0,-16.419Z" style="fill:white;fill-rule:nonzero;"/>
        </g>
        <g transform="matrix(1,0,0,1,179.865,362.085)">
            <path d="M0,12.971L2.256,18.298L14.102,16.785L14.149,16.797C15.67,17.212 16.879,17.151 17.742,16.617C18.67,16.042 18.866,15.094 18.868,15.085L18.91,14.869L20.014,14.978C20.138,14.992 32.126,16.358 35.376,14.538C38.34,12.878 39.211,8.242 39.333,7.501L37.429,5.108L33.251,-1.505L13.784,-5.32L0,12.971ZM1.954,18.824L-0.554,12.903L13.581,-5.853L13.729,-5.823L33.548,-1.939L37.823,4.828L39.841,7.364L39.827,7.466C39.796,7.693 39.034,13.044 35.612,14.96C32.227,16.856 20.462,15.517 19.962,15.459L19.284,15.391C19.165,15.757 18.832,16.506 18.006,17.022C17.033,17.63 15.708,17.715 14.068,17.276L1.954,18.824Z" style="fill:rgb(3,4,5);fill-rule:nonzero;"/>
        </g>
        <g opacity="0.14">
            <g transform="matrix(1,0,0,1,213.264,376.782)">
                <path d="M0,-16.419L4.22,-9.74L6.189,-7.263C6.189,-7.263 5.45,-1.827 2.095,0.052C-1.261,1.931 -13.409,0.522 -13.409,0.522L-14.294,0.433C-14.294,0.433 -14.885,3.542 -19.314,2.334L-31.295,3.864L-33.676,-1.76L-19.717,-20.283L0,-16.419Z" style="fill:rgb(3,4,5);fill-rule:nonzero;"/>
            </g>
        </g>
        <g transform="matrix(1,0,0,1,356.093,391.531)">
            <path d="M0,-21.744C0,-21.744 11.275,-23.623 19.06,-26.308C26.845,-28.992 33.019,-34.63 43.757,-33.824C54.495,-33.019 58.254,-30.871 58.254,-30.871C58.254,-30.871 62.317,-23.153 63.205,-14.093C64.092,-5.033 38.523,-1.006 25.033,-0.604C11.543,-0.201 -7.382,0.403 -22.684,2.819C-37.986,5.235 -50.67,6.846 -60.535,9.061C-60.535,9.061 -67.381,10.47 -71.911,11.678C-76.441,12.886 -78.656,9.463 -76.038,7.953C-76.038,7.953 -77.75,8.658 -81.575,8.859C-85.401,9.061 -85.803,7.249 -82.783,4.43C-82.783,4.43 -84.696,5.235 -87.313,5.235C-89.931,5.235 -90.031,2.215 -88.119,-0.1C-88.119,-0.1 -91.743,-1.107 -90.031,-5.536C-88.32,-9.966 -82.28,-15.805 -79.159,-19.227C-76.038,-22.65 -72.213,-17.315 -56.811,-16.207C-41.408,-15.1 0,-21.744 0,-21.744" style="fill:white;fill-rule:nonzero;"/>
        </g>
        <g transform="matrix(1,0,0,1,279.963,361.345)">
            <path d="M0,37.916L0.212,38.349C-0.652,38.848 -0.984,39.594 -0.674,40.343C-0.198,41.496 1.615,42.308 4.157,41.631C8.642,40.435 15.478,39.024 15.546,39.011C22.59,37.429 31.08,36.154 40.911,34.678C44.901,34.078 49.027,33.459 53.409,32.767C69.028,30.301 88.362,29.723 101.156,29.341C112.37,29.007 132.209,26.147 137.707,19.9C138.757,18.707 139.223,17.435 139.094,16.117C138.264,7.644 134.596,0.263 134.203,-0.507C133.679,-0.775 129.692,-2.66 119.87,-3.396C112.428,-3.958 107.16,-1.374 102.063,1.122C99.883,2.19 97.629,3.294 95.269,4.107C87.554,6.768 76.283,8.662 76.17,8.681L76.168,8.682C75.754,8.748 34.555,15.315 19.302,14.221C11.852,13.685 7.024,12.14 3.829,11.117C0.389,10.017 -1.337,9.463 -2.85,11.122C-3.398,11.723 -4.035,12.398 -4.724,13.127C-7.913,16.504 -12.281,21.129 -13.675,24.738C-14.223,26.154 -14.264,27.346 -13.797,28.281C-13.197,29.482 -11.936,29.85 -11.923,29.854L-11.567,29.954L-11.802,30.24C-12.911,31.582 -13.348,33.234 -12.866,34.258C-12.582,34.861 -12,35.18 -11.183,35.18C-8.65,35.18 -6.765,34.402 -6.747,34.394L-5.499,33.87L-6.488,34.793C-7.956,36.163 -8.632,37.337 -8.345,38.014C-8.092,38.609 -7.069,38.89 -5.458,38.805C-1.731,38.609 -0.017,37.923 0,37.916M2.4,42.359C0.578,42.359 -0.698,41.552 -1.121,40.528C-1.387,39.884 -1.298,39.234 -0.9,38.687C-1.801,38.906 -3.285,39.175 -5.432,39.287C-7.309,39.388 -8.441,39.022 -8.789,38.204C-9.111,37.446 -8.681,36.406 -7.543,35.167C-8.367,35.397 -9.652,35.664 -11.183,35.664C-12.186,35.664 -12.939,35.237 -13.303,34.464C-13.838,33.328 -13.467,31.647 -12.383,30.198C-12.857,29.993 -13.725,29.502 -14.226,28.504C-14.76,27.441 -14.726,26.116 -14.127,24.563C-12.698,20.866 -8.292,16.201 -5.075,12.795C-4.389,12.068 -3.754,11.396 -3.207,10.796C-1.486,8.909 0.454,9.529 3.976,10.657C7.15,11.672 11.945,13.207 19.337,13.738C34.538,14.832 75.678,8.27 76.092,8.204C76.276,8.173 87.46,6.289 95.111,3.65C97.443,2.847 99.584,1.798 101.85,0.688C107.007,-1.836 112.335,-4.443 119.905,-3.879C130.576,-3.078 134.348,-0.984 134.504,-0.895L134.565,-0.86L134.598,-0.797C134.639,-0.72 138.693,7.067 139.575,16.07C139.718,17.526 139.211,18.922 138.07,20.219C132.471,26.582 112.465,29.488 101.17,29.825C88.389,30.206 69.073,30.783 53.484,33.245C49.1,33.937 44.974,34.557 40.983,35.156C31.161,36.631 22.679,37.905 15.648,39.483C15.575,39.498 8.753,40.906 4.281,42.098C3.606,42.278 2.976,42.359 2.4,42.359" style="fill:rgb(3,4,5);fill-rule:nonzero;"/>
        </g>
        <g transform="matrix(1,0,0,1,196.366,383.948)">
            <path d="M0,-31.073C0,-31.073 11.137,-29.36 16.003,-24.594C16.003,-24.594 17.308,-22.885 16.003,-19.932C14.698,-16.979 13.422,-16.51 12.953,-14.832C12.483,-13.154 10.067,-10.738 7.449,-12.617C4.832,-14.496 4.631,-15.704 4.631,-15.704C4.631,-15.704 6.241,-13.624 4.765,-11.409C3.288,-9.194 1.544,-10.604 1.544,-10.604C1.544,-10.604 2.483,-9.463 2.684,-7.584C2.886,-5.705 0.604,-4.094 -2.416,-4.832C-2.416,-4.832 -0.94,-3.691 -2.013,-1.476C-3.087,0.738 -6.778,-1.141 -10.134,-1.476C-13.49,-1.812 -18.926,-6.644 -20,-8.053C-21.073,-9.463 -19.865,-11.812 -18.322,-12.282C-16.778,-12.751 -19.06,-14.966 -17.449,-17.114C-15.839,-19.261 -14.832,-19.261 -14.563,-22.483C-14.295,-25.704 -14.899,-28.187 -11.409,-29.328C-7.919,-30.469 -7.047,-31.811 -7.047,-31.811" style="fill:white;fill-rule:nonzero;"/>
        </g>
        <g transform="matrix(1,0,0,1,192.317,352.003)">
            <path d="M0,31.77C-0.929,31.77 -2.025,31.519 -3.151,31.261C-4.125,31.037 -5.133,30.806 -6.11,30.709C-9.508,30.369 -15.016,25.517 -16.143,24.038C-16.626,23.404 -16.734,22.563 -16.446,21.671C-16.103,20.61 -15.259,19.711 -14.344,19.432C-13.865,19.286 -13.885,18.98 -14.07,18.069C-14.256,17.156 -14.51,15.906 -13.595,14.686C-13.15,14.094 -12.754,13.665 -12.405,13.288C-11.494,12.303 -10.945,11.708 -10.756,9.442C-10.711,8.903 -10.691,8.385 -10.672,7.885C-10.573,5.372 -10.495,3.387 -7.436,2.387C-4.097,1.295 -3.209,0.013 -3.2,0L-2.796,0.265C-2.833,0.323 -3.755,1.692 -7.286,2.847C-10.026,3.742 -10.094,5.487 -10.188,7.904C-10.208,8.409 -10.229,8.932 -10.275,9.482C-10.477,11.914 -11.103,12.591 -12.05,13.616C-12.392,13.985 -12.779,14.404 -13.208,14.976C-13.993,16.023 -13.773,17.104 -13.596,17.973C-13.433,18.777 -13.264,19.609 -14.203,19.895C-14.973,20.129 -15.689,20.903 -15.985,21.819C-16.123,22.246 -16.277,23.064 -15.759,23.745C-14.663,25.183 -9.328,29.901 -6.062,30.228C-5.054,30.329 -4.032,30.563 -3.043,30.789C-0.795,31.305 1.146,31.749 1.818,30.363C2.787,28.362 1.538,27.345 1.484,27.303L0.609,26.614L1.69,26.878C3.275,27.264 4.783,27.005 5.723,26.182C6.29,25.686 6.563,25.048 6.493,24.387C6.302,22.609 5.414,21.505 5.405,21.495L3.97,19.739L5.743,21.153C5.749,21.157 6.361,21.638 7.125,21.522C7.673,21.437 8.174,21.06 8.612,20.402C9.411,19.204 9.249,18.055 8.968,17.296C8.514,16.675 8.446,16.308 8.441,16.28L8.283,15.334L8.871,16.092C8.877,16.101 9.147,16.457 9.372,17.03C9.747,17.539 10.425,18.26 11.639,19.131C12.53,19.771 13.447,19.931 14.367,19.61C15.58,19.183 16.509,17.971 16.768,17.047C17.006,16.199 17.445,15.635 17.953,14.981C18.492,14.289 19.162,13.427 19.83,11.914C21.056,9.142 19.908,7.563 19.859,7.497C15.129,2.867 4.122,1.127 4.011,1.11L4.085,0.633C4.543,0.703 15.355,2.413 20.22,7.179C20.3,7.279 21.62,9.061 20.272,12.11C19.58,13.677 18.889,14.565 18.334,15.278C17.838,15.916 17.446,16.421 17.234,17.178C16.935,18.245 15.909,19.58 14.527,20.066C13.464,20.438 12.369,20.251 11.357,19.524C10.613,18.99 10.058,18.505 9.644,18.083C9.738,18.842 9.629,19.747 9.015,20.67C8.496,21.448 7.883,21.895 7.193,22.001C6.841,22.055 6.52,22.011 6.25,21.933C6.535,22.475 6.862,23.295 6.973,24.335C7.061,25.158 6.731,25.944 6.042,26.546C5.121,27.352 3.738,27.684 2.25,27.477C2.619,28.065 2.962,29.111 2.253,30.574C1.816,31.475 1.007,31.77 0,31.77" style="fill:rgb(3,4,5);fill-rule:nonzero;"/>
        </g>
        <g transform="matrix(1,0,0,1,184.42,369.72)">
            <path d="M0,-29.865C0,-29.865 7.181,-11.342 11.006,-6.376L19.396,1.611C19.396,1.611 15.503,-6.04 13.892,-9.664C12.282,-13.288 2.55,-30.402 2.349,-30.939C2.148,-31.476 0,-29.865 0,-29.865" style="fill:white;fill-rule:nonzero;"/>
        </g>
        <g transform="matrix(1,0,0,1,184.712,370.833)">
            <path d="M0,-30.893C0.738,-29.007 7.34,-12.263 10.906,-7.635L18.256,-0.641C17.083,-2.968 14.582,-7.971 13.379,-10.678C12.301,-13.103 7.607,-21.532 4.5,-27.11C2.846,-30.079 2,-31.601 1.85,-31.921L1.849,-31.921C1.605,-31.921 0.79,-31.468 0,-30.893M19.958,1.646L10.547,-7.313C6.72,-12.278 -0.224,-30.132 -0.517,-30.89L-0.584,-31.061L-0.437,-31.171C0.119,-31.587 1.472,-32.539 2.015,-32.382C2.142,-32.345 2.237,-32.257 2.283,-32.136C2.356,-31.952 3.545,-29.817 4.922,-27.345C8.033,-21.76 12.734,-13.319 13.821,-10.875C15.41,-7.298 19.28,0.312 19.318,0.389L19.958,1.646Z" style="fill:rgb(3,4,5);fill-rule:nonzero;"/>
        </g>
        <g transform="matrix(-0.757062,-0.653343,-0.653343,0.757062,190.701,354.282)">
            <rect x="-9.498" y="3.533" width="10.992" height="0.484" style="fill:rgb(3,4,5);"/>
        </g>
        <g transform="matrix(-0.838612,-0.54473,-0.54473,0.838612,187.467,360.758)">
            <rect x="-15.612" y="4.625" width="17.125" height="0.483" style="fill:rgb(3,4,5);"/>
        </g>
        <g transform="matrix(0.494196,-0.869351,-0.869351,-0.494196,193.1,371.616)">
            <path d="M-6.375,-3.751C-7.73,2.011 -6.865,10.793 -6.855,10.882L-6.375,10.833C-6.383,10.745 -7.24,2.042 -5.905,-3.64L-6.375,-3.751Z" style="fill:rgb(3,4,5);fill-rule:nonzero;"/>
        </g>
        <g transform="matrix(-0.111656,0.993747,0.993747,0.111656,206.132,369.259)">
            <path d="M-7.272,-2.676C-7.272,-2.676 -0.895,-6.87 1.962,-2.676" style="fill:white;fill-rule:nonzero;"/>
        </g>
        <g transform="matrix(0.989042,0.147631,0.147631,-0.989042,202.38,371.234)">
            <path d="M0.688,0.245C-3.757,3.041 0.234,9.735 0.274,9.802L0.688,9.552C0.65,9.488 -3.098,3.198 0.946,0.653L0.688,0.245Z" style="fill:rgb(3,4,5);fill-rule:nonzero;"/>
        </g>
        <g transform="matrix(1,0,0,1,205.722,370.744)">
            <path d="M0,-6.485C-0.394,-6.104 -2.383,-4.033 -1.741,-1.76C-1.444,-0.707 -0.857,-0.084 -0.091,-0.006C0.711,0.076 1.565,-0.487 2.039,-1.403C2.853,-2.975 3.535,-4.285 3.767,-4.73C3.316,-5.137 1.737,-6.439 0,-6.485M0.07,0.485C0,0.485 -0.069,0.482 -0.139,0.475C-1.103,0.377 -1.856,-0.389 -2.207,-1.629C-2.997,-4.427 -0.367,-6.808 -0.255,-6.908L-0.186,-6.97L-0.094,-6.97C2.194,-6.97 4.155,-5.035 4.237,-4.953L4.363,-4.827L4.281,-4.67C4.281,-4.67 3.476,-3.127 2.469,-1.181C1.936,-0.149 1.011,0.485 0.07,0.485" style="fill:rgb(3,4,5);fill-rule:nonzero;"/>
        </g>
        <g transform="matrix(0.759635,-0.65035,-0.65035,-0.759635,201.835,361.947)">
            <path d="M-1.315,-0.584C-2.554,1.023 -1.808,3.382 -1.776,3.482L-1.315,3.333C-1.323,3.311 -2.014,1.115 -0.933,-0.289L-1.315,-0.584Z" style="fill:rgb(3,4,5);fill-rule:nonzero;"/>
        </g>
        <g transform="matrix(0.976703,-0.214594,-0.214594,-0.976703,202.709,365.388)">
            <path d="M-0.683,-0.097C-1.796,1.078 -1.231,5.779 -1.164,6.311L-0.683,6.25C-0.86,4.867 -1.142,1.089 -0.333,0.236L-0.683,-0.097Z" style="fill:rgb(3,4,5);fill-rule:nonzero;"/>
        </g>
        <g transform="matrix(-0.990096,-0.140395,-0.140395,0.990096,194.576,352.197)">
            <rect x="-3.765" y="0.266" width="3.818" height="0.484" style="fill:rgb(3,4,5);"/>
        </g>
        <g transform="matrix(1,0,0,1,220.553,267.217)">
            <path d="M0,113.057C-4.248,53.049 4.745,7.458 4.837,7.005L6.179,0L6.654,0.091L5.311,7.098C5.219,7.553 -3.761,53.084 0.482,113.023L0,113.057Z" style="fill:rgb(3,4,5);fill-rule:nonzero;"/>
        </g>
        <g transform="matrix(1,0,0,1,350.892,287.511)">
            <path d="M0,83.393C0.055,80.261 -0.333,75.556 -0.48,72.364C-0.96,65.008 -1.091,57.637 -1.352,50.272C-1.52,46.59 -1.793,42.917 -2.062,39.237C-3.11,26.394 0.559,12.551 10.073,3.436C11.413,2.154 12.839,0.954 14.424,-0.011L14.475,0.071C11.545,2.276 9.1,5.072 6.988,8.049C2.8,14.03 0.216,21.062 -0.877,28.259C-2.007,35.529 -1.429,42.938 -1.039,50.255C-0.508,57.609 0.146,64.956 0.269,72.334C0.328,75.099 0.376,77.869 0.293,80.636C0.256,81.559 0.235,82.484 0.096,83.404L0,83.393Z" style="fill:rgb(3,4,5);fill-rule:nonzero;"/>
        </g>
        <g transform="matrix(1,0,0,1,355.464,382.375)">
            <path d="M0,-1.042L-0.321,-2.137C-0.809,-3.8 -2.056,-5.041 -3.573,-5.606C-4.534,-7.564 -5.883,-9.514 -7.771,-11.32L-14.332,-10.401C-14.332,-10.401 -11.694,-8.076 -9.718,-3.716C-10.627,-2.435 -10.97,-0.767 -10.496,0.848L-10.175,1.943C-9.764,3.345 -8.815,4.45 -7.618,5.101C-7.545,6.713 -7.617,8.437 -7.896,10.278L-2.057,9.809C-2.057,9.809 -1.405,7.537 -1.395,4.247C-0.037,2.918 0.57,0.9 0,-1.042" style="fill:rgb(3,4,5);fill-rule:nonzero;"/>
        </g>
        <g transform="matrix(1,0,0,1,351.716,378.1)">
            <path d="M0,8.357L-0.582,8.522C-2.766,9.142 -5.059,7.862 -5.679,5.678L-5.844,5.096C-6.463,2.913 -5.184,0.619 -3,-0L-2.418,-0.165C-0.234,-0.785 2.059,0.495 2.679,2.678L2.844,3.26C3.463,5.444 2.184,7.737 0,8.357" style="fill:white;fill-rule:nonzero;"/>
        </g>
        <g transform="matrix(1,0,0,1,350.213,386.305)">
            <path d="M0,-8.215C-0.381,-8.215 -0.764,-8.162 -1.14,-8.055C-2.212,-7.752 -3.103,-7.045 -3.649,-6.065C-4.196,-5.085 -4.33,-3.955 -4.025,-2.884C-3.722,-1.813 -3.015,-0.922 -2.035,-0.375C-1.056,0.172 0.075,0.305 1.146,0.001C2.217,-0.302 3.108,-1.01 3.655,-1.989C4.202,-2.969 4.336,-4.099 4.031,-5.17C3.728,-6.242 3.02,-7.132 2.041,-7.679C1.405,-8.034 0.705,-8.215 0,-8.215M0.005,0.645C-0.782,0.645 -1.562,0.443 -2.271,0.047C-3.363,-0.562 -4.152,-1.557 -4.491,-2.752C-4.83,-3.948 -4.681,-5.208 -4.071,-6.301C-3.462,-7.393 -2.468,-8.181 -1.272,-8.521C-0.076,-8.86 1.184,-8.712 2.276,-8.101C3.369,-7.492 4.157,-6.498 4.497,-5.302C4.836,-4.106 4.687,-2.846 4.077,-1.754C3.467,-0.661 2.473,0.127 1.278,0.467C0.858,0.586 0.431,0.645 0.005,0.645" style="fill:rgb(3,4,5);fill-rule:nonzero;"/>
        </g>
        <g transform="matrix(1,0,0,1,351.716,378.1)">
            <path d="M0,8.357L-0.582,8.522C-2.766,9.142 -5.059,7.862 -5.679,5.678L-5.844,5.096C-6.463,2.913 -5.184,0.619 -3,-0L-2.418,-0.165C-0.234,-0.785 2.059,0.495 2.679,2.678L2.844,3.26C3.463,5.444 2.184,7.737 0,8.357" style="fill:white;fill-rule:nonzero;"/>
        </g>
        <g transform="matrix(1,0,0,1,350.213,386.305)">
            <path d="M0,-8.215C-0.381,-8.215 -0.764,-8.162 -1.14,-8.055C-2.212,-7.752 -3.103,-7.045 -3.649,-6.065C-4.196,-5.085 -4.33,-3.955 -4.025,-2.884C-3.722,-1.813 -3.015,-0.922 -2.035,-0.375C-1.056,0.172 0.075,0.305 1.146,0.001C2.217,-0.302 3.108,-1.01 3.655,-1.989C4.202,-2.969 4.336,-4.099 4.031,-5.17C3.728,-6.242 3.02,-7.132 2.041,-7.679C1.405,-8.034 0.705,-8.215 0,-8.215M0.005,0.645C-0.782,0.645 -1.562,0.443 -2.271,0.047C-3.363,-0.562 -4.152,-1.557 -4.491,-2.752C-4.83,-3.948 -4.681,-5.208 -4.071,-6.301C-3.462,-7.393 -2.468,-8.181 -1.272,-8.521C-0.076,-8.86 1.184,-8.712 2.276,-8.101C3.369,-7.492 4.157,-6.498 4.497,-5.302C4.836,-4.106 4.687,-2.846 4.077,-1.754C3.467,-0.661 2.473,0.127 1.278,0.467C0.858,0.586 0.431,0.645 0.005,0.645" style="fill:rgb(3,4,5);fill-rule:nonzero;"/>
        </g>
        <g transform="matrix(1,0,0,1,267.775,376.735)">
            <path d="M0,15.371L-0.388,15.082C-0.346,15.025 3.88,9.366 7.142,6.103C9.071,4.174 10.604,2.867 11.835,1.817C12.685,1.093 13.356,0.521 13.849,0L14.2,0.332C13.689,0.871 13.01,1.451 12.149,2.185C10.924,3.229 9.399,4.529 7.484,6.444C4.246,9.682 0.042,15.314 0,15.371" style="fill:rgb(3,4,5);fill-rule:nonzero;"/>
        </g>
        <g transform="matrix(1,0,0,1,273.474,384.781)">
            <path d="M0,11.358L-0.328,11.003C0.086,10.621 9.819,1.64 11.447,0.894C13.08,0.145 15.46,0.006 15.561,0L15.587,0.483C15.564,0.484 13.197,0.623 11.648,1.333C10.401,1.905 3.484,8.141 0,11.358" style="fill:rgb(3,4,5);fill-rule:nonzero;"/>
        </g>
        <g transform="matrix(-0.509916,-0.860224,-0.860224,0.509916,293.85,399.515)">
            <path d="M6.819,11.852L7.301,11.852C7.302,11.277 7.294,-2.252 6.675,-4.015L6.219,-3.855C6.693,-2.506 6.818,7.009 6.819,11.852" style="fill:rgb(3,4,5);fill-rule:nonzero;"/>
        </g>
        <g transform="matrix(1,0,0,1,219.668,377.975)">
            <path d="M0,-25.838L-2.689,-11.653L-0.216,-8.456L0.262,-4.63L0.858,0L0,-25.838Z" style="fill:rgb(3,4,5);fill-rule:nonzero;"/>
        </g>
        <g transform="matrix(1,0,0,1,299.043,337.19)">
            <path d="M0,38.268L-0.898,38.208L0.947,0L1.491,0.18C1.731,0.259 25.549,8.04 41.137,4.044L41.705,3.899L41.559,34.926L40.66,34.895L40.778,5.153C26.301,8.567 5.413,2.434 1.784,1.307L0,38.268Z" style="fill:rgb(3,4,5);fill-rule:nonzero;"/>
        </g>
        <g transform="matrix(1,0,0,1,328.367,353.928)">
            <path d="M0,1.338C-13.869,1.782 -28.489,-1.893 -28.678,-1.942L-28.58,-2.427C-28.335,-2.364 -3.956,3.765 11.61,-0.822L11.728,-0.342C8.147,0.714 4.107,1.206 0,1.338" style="fill:rgb(3,4,5);fill-rule:nonzero;"/>
        </g>
        <g transform="matrix(1,0,0,1,198.983,381.959)">
            <path d="M0,-8.145C0,-8.145 3.221,-1.904 4.966,-0.024C6.711,1.855 9.964,4.875 9.964,4.875L8.926,-1.702L5.302,-10.335L2.345,-13.02C2.345,-13.02 4.027,-9.017 0,-8.145" style="fill:white;fill-rule:nonzero;"/>
        </g>
        <g transform="matrix(1,0,0,1,199.34,381.541)">
            <path d="M0,-7.565C0.641,-6.346 3.29,-1.382 4.786,0.23C6.092,1.636 8.271,3.708 9.258,4.636L8.335,-1.217L4.743,-9.773L2.465,-11.842C2.614,-11.135 2.692,-10.103 2.218,-9.192C1.807,-8.402 1.061,-7.856 0,-7.565M9.954,5.946L9.442,5.47C9.41,5.44 6.163,2.423 4.432,0.558C2.685,-1.323 -0.439,-7.36 -0.572,-7.616L-0.716,-7.896L-0.408,-7.962C0.668,-8.196 1.407,-8.684 1.788,-9.413C2.485,-10.75 1.773,-12.491 1.766,-12.508L1.347,-13.511L5.167,-10.01L8.808,-1.322L9.954,5.946Z" style="fill:rgb(3,4,5);fill-rule:nonzero;"/>
        </g>
        <g transform="matrix(-0.925744,-0.37815,-0.37815,0.925744,207.891,380.631)">
            <path d="M2.133,3.048L2.617,3.048C2.614,0.848 0.343,-0.506 0.247,-0.563L0.003,-0.145C0.024,-0.133 2.131,1.129 2.133,3.048" style="fill:rgb(3,4,5);fill-rule:nonzero;"/>
        </g>
        <g transform="matrix(1,0,0,1,207.48,383.877)">
            <path d="M0,1.388L-0.476,1.303C-0.284,0.234 0.62,0 1.05,0.009L1.03,0.492L1.04,0.25L1.031,0.492C0.938,0.481 0.161,0.491 0,1.388" style="fill:rgb(3,4,5);fill-rule:nonzero;"/>
        </g>
        <g transform="matrix(0,-1,-1,0,349.642,378.986)">
            <path d="M-0.139,-0.139C-0.215,-0.139 -0.277,-0.077 -0.277,-0.001C-0.277,0.077 -0.215,0.139 -0.139,0.139C-0.063,0.139 -0.001,0.077 -0.001,-0.001C-0.001,-0.077 -0.063,-0.139 -0.139,-0.139" style="fill:rgb(3,4,5);fill-rule:nonzero;"/>
        </g>
        <g transform="matrix(0,-1,-1,0,351.051,385.466)">
            <path d="M-0.139,-0.139C-0.215,-0.139 -0.277,-0.077 -0.277,-0.001C-0.277,0.077 -0.215,0.139 -0.139,0.139C-0.063,0.139 -0.001,0.077 -0.001,-0.001C-0.001,-0.077 -0.063,-0.139 -0.139,-0.139" style="fill:rgb(3,4,5);fill-rule:nonzero;"/>
        </g>
        <g transform="matrix(-0.992877,-0.119145,-0.119145,0.992877,347.013,382.817)">
            <path d="M-0.016,-0.276C-0.093,-0.276 -0.155,-0.214 -0.155,-0.137C-0.155,-0.061 -0.093,0.001 -0.016,0.001C0.06,0.001 0.122,-0.061 0.122,-0.137C0.122,-0.214 0.06,-0.276 -0.016,-0.276" style="fill:rgb(3,4,5);fill-rule:nonzero;"/>
        </g>
        <g transform="matrix(-0.992877,-0.119145,-0.119145,0.992877,350.419,382.54)">
            <path d="M-0.016,-0.276C-0.093,-0.276 -0.155,-0.214 -0.155,-0.137C-0.155,-0.061 -0.093,0.001 -0.016,0.001C0.06,0.001 0.122,-0.061 0.122,-0.137C0.122,-0.214 0.06,-0.276 -0.016,-0.276" style="fill:rgb(3,4,5);fill-rule:nonzero;"/>
        </g>
        <g transform="matrix(-0.992877,-0.119145,-0.119145,0.992877,353.615,382.182)">
            <path d="M-0.016,-0.276C-0.093,-0.276 -0.155,-0.214 -0.155,-0.137C-0.155,-0.061 -0.093,0.001 -0.016,0.001C0.06,0.001 0.122,-0.061 0.122,-0.137C0.122,-0.214 0.06,-0.276 -0.016,-0.276" style="fill:rgb(3,4,5);fill-rule:nonzero;"/>
        </g>
        <g transform="matrix(1,0,0,1,350.331,382.423)">
            <path d="M0,-3.148C0.093,-2.364 0.227,-1.581 0.258,-0.795C0.243,-0.532 0.215,-0.268 0.126,-0.002L0.09,0C-0.124,-0.51 -0.142,-1.032 -0.1,-1.568C-0.061,-1.967 -0.12,-2.894 0,-3.148" style="fill:rgb(3,4,5);fill-rule:nonzero;"/>
        </g>
        <g transform="matrix(-0.835272,-0.549837,-0.549837,0.835272,351.3,381.723)">
            <rect x="-3.327" y="0.997" width="3.661" height="0.121" style="fill:rgb(3,4,5);"/>
        </g>
        <g transform="matrix(1,0,0,1,350.313,384.78)">
            <path d="M0,-4.883C-1.346,-4.883 -2.441,-3.788 -2.441,-2.441C-2.441,-1.095 -1.346,0 0,0C1.346,0 2.442,-1.095 2.442,-2.441C2.442,-3.788 1.346,-4.883 0,-4.883M0,0.242C-1.48,0.242 -2.683,-0.962 -2.683,-2.441C-2.683,-3.921 -1.48,-5.125 0,-5.125C1.48,-5.125 2.683,-3.921 2.683,-2.441C2.683,-0.962 1.48,0.242 0,0.242" style="fill:rgb(3,4,5);fill-rule:nonzero;"/>
        </g>
        <g opacity="0.23">
            <g transform="matrix(0.154398,0.988009,0.988009,-0.154398,310.352,369.446)">
                <path d="M28.675,-22.799C28.675,-22.799 26.649,-1.205 24.764,4.115C22.878,9.436 28.006,24.694 28.675,33.186C28.675,33.186 27.99,8.485 28.385,5.239C28.779,1.994 27.37,-11.811 28.675,-22.799" style="fill:rgb(3,4,5);fill-rule:nonzero;"/>
            </g>
        </g>
        <g opacity="0.14">
            <g transform="matrix(1,0,0,1,348.405,376.358)">
                <path d="M0,-4.589C0,-4.589 0.212,-4.602 0.606,-4.63C4.5,-4.906 26.201,-6.593 37.05,-10.597C48.996,-15.006 59.063,-17.422 64.834,-12.322C70.606,-7.221 60.002,2.954 45.909,5.92C31.815,8.886 -26.157,18.127 23.036,14.886C45.428,13.41 63.555,9.751 68.527,4.188C73.499,-1.374 65.942,-15.698 65.942,-15.698C65.942,-15.698 52.194,-22.716 37.374,-16.11C22.554,-9.503 12.096,-6.721 -0.712,-5.303" style="fill:rgb(3,4,5);fill-rule:nonzero;"/>
            </g>
        </g>
        <g opacity="0.14">
            <g transform="matrix(1,0,0,1,276.934,403.716)">
                <path d="M0,-31.412C0,-31.412 -6.867,-22.179 -8.59,-17.634C-10.314,-13.088 0.067,-22.976 2.684,-25.741C5.302,-28.506 7.013,-27.7 4.245,-24.479C1.476,-21.258 -6.208,-11.513 -7.181,-9.231C-8.154,-6.95 1.323,-12.34 3.878,-14.489C6.434,-16.639 7.147,-18.519 12.114,-19.285C17.08,-20.05 8.725,-17.473 4.245,-13.225C-0.235,-8.976 -3.255,-6.258 -0.94,-5.956C1.376,-5.654 8.143,-8.372 13.769,-10.889C19.396,-13.406 21.308,-12.672 16.275,-10.271C11.241,-7.869 4.701,-3.943 5.203,-3.137C5.705,-2.332 17.013,-3.137 17.013,-3.137C17.013,-3.137 7.922,0 5.203,-0.26C2.483,-0.52 0.653,-2.867 3.682,-4.562C3.682,-4.562 -11.857,-0.332 -2.579,-8.715C-2.579,-8.715 -14.113,-3.279 -8.231,-13.225C-8.231,-13.225 -14.628,-12.401 -8.187,-22.215L0,-31.412Z" style="fill:rgb(3,4,5);fill-rule:nonzero;"/>
            </g>
        </g>
        <g opacity="0.14">
            <g transform="matrix(1,0,0,1,284.093,379.813)">
                <path d="M0,-7.509C0,-7.509 13.243,-1.707 22.102,-0.689C30.961,0.33 58.328,-6.469 58.328,-6.469L57.04,-7.839C57.04,-7.839 33.581,-4.935 27.34,-4.66C21.098,-4.385 10.917,-4.274 0,-7.509" style="fill:rgb(3,4,5);fill-rule:nonzero;"/>
            </g>
        </g>
        <g opacity="0.14">
            <g transform="matrix(1,0,0,1,189.319,384.687)">
                <path d="M0,-32.55C0,-32.55 -0.872,-31.208 -4.362,-30.067C-7.852,-28.926 -7.248,-26.443 -7.517,-23.221C-7.785,-20 -8.792,-20 -10.402,-17.852C-12.013,-15.705 -9.731,-13.49 -11.275,-13.02C-12.818,-12.55 -14.027,-10.202 -12.953,-8.792C-11.879,-7.383 -6.443,-2.551 -3.087,-2.215C0.268,-1.88 3.96,0 5.033,-2.215C6.107,-4.43 4.631,-5.571 4.631,-5.571C7.651,-4.833 9.933,-6.443 9.731,-8.322C9.53,-10.202 8.59,-11.342 8.59,-11.342C8.59,-11.342 10.335,-9.933 11.812,-12.148C13.288,-14.363 11.678,-16.443 11.678,-16.443C11.678,-16.443 11.879,-15.235 14.496,-13.356C17.114,-11.477 19.53,-13.893 20,-15.571C20.469,-17.248 21.744,-17.718 23.05,-20.671C24.355,-23.624 23.05,-25.332 23.05,-25.332C18.184,-30.098 7.047,-31.812 7.047,-31.812C7.047,-31.812 11.663,-30.013 16.905,-27.496C22.147,-24.98 21.946,-25.456 21.342,-22.953C20.738,-20.449 17.1,-20.624 16.905,-22.953C16.711,-25.282 14.839,-24.98 13.711,-23.369C12.584,-21.758 12.744,-23.074 12.01,-25.235C11.275,-27.396 10.71,-26.09 10.536,-24.323C10.362,-22.557 7.534,-27.54 7.534,-27.54C7.534,-27.54 0.604,-30.389 0.201,-28.188C-0.201,-25.986 -0.75,-27.259 -0.75,-27.259C-0.75,-27.259 8.154,-18.322 9.664,-16.114C11.174,-13.906 -1.409,-20.222 -4.127,-21.342C-6.845,-22.463 -5.369,-19.357 -2.483,-17.185C0.403,-15.013 4.53,-13.242 6.543,-9.296C8.557,-5.349 0.369,-9.779 -4.899,-11.993C-10.168,-14.208 -10.772,-13.403 -8.255,-9.98C-5.738,-6.557 3.054,-6.254 3.389,-4.04C3.725,-1.826 -3.609,-3.555 -8.481,-6.712C-13.353,-9.868 -11.409,-11.031 -9.731,-13.777C-8.053,-16.523 -9.161,-18.175 -7.047,-20.671C-4.933,-23.168 -6.443,-27.168 -4.329,-28.188C-2.215,-29.208 1.202,-30.395 1.202,-30.395L0,-32.55Z" style="fill:rgb(3,4,5);fill-rule:nonzero;"/>
            </g>
        </g>
        <g transform="matrix(1,0,0,1,296.131,280.067)">
            <path d="M0,13.559C2.723,13.907 5.431,14.337 8.137,14.776L8.199,15.002C9.642,20.518 11.009,26.301 12.116,31.911L11.635,31.842C16.202,24.119 19.256,15.586 22.086,7.108C24.876,-1.378 26.717,-10.406 27.529,-19.136C28.056,-0.882 20.171,16.17 12.09,32.099L11.786,32.695L11.608,32.031C10.085,26.514 8.708,20.744 7.526,15.162L7.799,15.422C5.187,14.866 2.577,14.301 -0.018,13.657L0,13.559Z" style="fill:rgb(3,4,5);fill-rule:nonzero;"/>
        </g>
        <g transform="matrix(1,0,0,1,271.361,289.482)">
            <path d="M0,5.075C-1.181,5.913 -2.371,6.736 -3.583,7.524L-3.449,7.318C-3.87,12.236 -4.448,17.134 -5.31,21.996L-5.47,22.977L-5.811,22.072C-9.801,11.721 -13.3,0.982 -13.31,-10.226C-13.308,-12.815 -13.141,-15.324 -12.829,-17.902L-12.73,-17.895C-12.773,-11.087 -12.135,-4.354 -10.943,2.338C-9.683,8.971 -8.303,15.743 -5.331,21.854L-5.833,21.93C-5.618,19.472 -5.433,17.01 -5.093,14.567C-4.738,12.077 -4.417,9.582 -3.986,7.102C-2.693,6.367 -1.378,5.671 -0.052,4.99L0,5.075Z" style="fill:rgb(3,4,5);fill-rule:nonzero;"/>
        </g>
        <g transform="matrix(-0.361632,-0.932321,-0.932321,0.361632,373.074,341.361)">
            <path d="M-22.187,-29.023C-14.07,-15.095 -12.046,2.597 -22.263,16.024L-22.187,16.089C-16.475,10.24 -13.796,1.792 -14.491,-6.32C-15.073,-14.278 -17.8,-22.587 -22.187,-29.023" style="fill:rgb(3,4,5);fill-rule:nonzero;"/>
        </g>
        <g transform="matrix(1,0,0,1,190.52,356.974)">
            <path d="M0,-13.301C9.905,-13.322 21.195,-10.194 27.163,-1.744C27.536,-1.171 27.921,-0.612 28.274,-0.036L28.192,0.021C27.512,-0.681 26.79,-1.471 26.146,-2.205C23.034,-5.173 19.508,-7.786 15.574,-9.584C10.747,-11.873 5.117,-12.848 0,-13.301" style="fill:rgb(3,4,5);fill-rule:nonzero;"/>
        </g>
        <g transform="matrix(0.23913,0.970988,0.970988,-0.23913,320.77,396.982)">
            <path d="M-0.497,-0.651L0.816,-0.651L0.83,-0.634L0.784,-0.623L-0.497,-0.651Z" style="fill:rgb(35,31,32);fill-rule:nonzero;"/>
        </g>
        <g transform="matrix(1,0,0,1,180.658,366.202)">
            <path d="M0,-17.235C-5.367,-14.38 -5.577,-9.013 -5.672,-6.529C-5.682,-6.148 -5.701,-5.748 -5.739,-5.33C-6.119,-4.911 -6.662,-4.311 -7.261,-3.512C-8.717,-1.58 -9.174,0.38 -9.241,1.998L-13.028,-7.043L-0.828,-19.233C-0.571,-18.605 -0.295,-17.939 0,-17.235" style="fill:rgb(3,4,4);fill-rule:nonzero;"/>
        </g>
        <g transform="matrix(1,0,0,1,332.848,338.651)">
            <path d="M0,-166.141L-14.294,-151.847C-15.312,-152.447 -16.502,-152.913 -17.91,-153.141C-18.148,-153.256 -18.624,-153.532 -18.976,-153.741C-20.832,-154.826 -23.639,-156.463 -27.817,-156.596C-28.616,-156.615 -29.045,-156.729 -29.892,-156.948C-32.556,-157.633 -35.24,-158.138 -41.14,-157.338C-49.829,-156.158 -52.037,-155.092 -56.995,-151.371C-57.48,-151 -58.004,-150.629 -58.556,-150.239C-62.419,-147.469 -68.244,-143.292 -71.765,-135.621C-72.345,-134.422 -76.361,-126.086 -78.417,-116.303C-78.626,-115.418 -79.464,-111.62 -79.578,-106.51L-79.606,-105.606C-79.654,-104.207 -79.949,-102.932 -80.492,-101.714L-80.701,-101.171C-81.595,-98.592 -82.214,-95.994 -82.547,-93.453L-82.566,-93.32C-82.661,-92.473 -82.737,-91.616 -82.804,-90.76C-91.988,-89.447 -108.185,-84.393 -118.396,-65.579L-118.52,-65.351L-132.747,-33.394L-170.614,4.473C-173.535,-6.776 -175.086,-18.577 -175.086,-30.739C-175.086,-107.995 -112.458,-170.614 -35.211,-170.614C-23.049,-170.614 -11.249,-169.063 0,-166.141" style="fill:rgb(103,180,82);fill-rule:nonzero;"/>
        </g>
        <g transform="matrix(1,0,0,1,405.421,365.089)">
            <path d="M0,-146.337L-50.295,-96.042C-46.051,-92.587 -40.722,-87.743 -39.208,-86.363C-38.333,-85.745 -37.4,-84.86 -36.173,-83.518C-35.297,-82.671 -34.916,-82.271 -34.698,-82.033C-34.212,-81.5 -33.413,-80.539 -31.196,-77.494C-28.921,-74.553 -26.637,-71.346 -24.734,-68.444C-23.601,-66.826 -22.84,-65.731 -22.84,-65.731L-20.848,-62.868C-20.146,-61.753 -18.942,-59.437 -18.288,-55.923L-18.329,-55.92C-18.196,-55.358 -18.11,-54.873 -18.053,-54.445C-17.881,-53.079 -16.996,-51.732 -15.728,-50.462C-15.006,-49.582 -14.189,-48.667 -13.38,-47.764C-11.429,-45.585 -9.212,-43.12 -7.461,-40.227C-4.33,-35.088 10.087,-14.722 13.694,-9.631L14.123,-9.384L14.817,-8.051L20.546,0L24.125,-10.535C29.283,-25.124 32.09,-40.826 32.09,-57.176C32.09,-91.065 20.042,-122.136 0,-146.337" style="fill:rgb(0,170,228);fill-rule:nonzero;"/>
        </g>
        <g transform="matrix(0,-1,-1,0,297.638,116.972)">
            <path d="M-190.666,-190.666C-295.968,-190.666 -381.333,-105.302 -381.333,0.001C-381.333,105.303 -295.968,190.666 -190.666,190.666C-85.364,190.666 0.001,105.303 0.001,0.001C0.001,-105.302 -85.364,-190.666 -190.666,-190.666Z" style="fill:none;fill-rule:nonzero;stroke:rgb(3,4,4);stroke-width:4px;"/>
        </g>
        <g transform="matrix(1,0,0,1,349.016,191.848)">
            <path d="M0,-14.075L-19.338,5.263C-20.27,4.283 -21.232,3.416 -22.212,2.684C-24.143,1.228 -25.286,-0.067 -26.38,-1.323C-27.465,-2.56 -28.721,-3.997 -30.463,-5.044L-16.169,-19.338C-10.639,-17.91 -5.234,-16.14 0,-14.075" style="fill:rgb(255,221,24);fill-rule:nonzero;"/>
        </g>
        <g transform="matrix(1,0,0,1,200.1,359.159)">
            <path d="M0,-53.902L-11.886,-27.208C-15.084,-27.95 -17.796,-26.342 -19.814,-24.838L-24.029,-21.688L-22.117,-16.816C-22.107,-16.787 -21.384,-14.912 -20.27,-12.2L-20.27,-12.191L-32.471,0L-34.212,-4.159C-35.602,-8.041 -36.829,-12 -37.867,-16.035L0,-53.902Z" style="fill:rgb(255,221,24);fill-rule:nonzero;"/>
        </g>
        <g transform="matrix(1,0,0,1,395.134,231.133)">
            <path d="M0,-23.525L-53.36,29.835C-53.569,29.749 -53.769,29.673 -53.978,29.606C-55.625,29.035 -57.242,28.445 -58.803,27.855C-59.936,27.351 -61.039,26.865 -62.067,26.418C-61.011,23.668 -60.145,20.68 -60.383,17.33C-60.488,15.388 -61.144,13.59 -62.201,12.077C-59.45,6.233 -57.88,-1.256 -57.004,-7.375C-55.501,-17.939 -59.802,-28.064 -65.455,-34.022L-46.117,-53.36C-28.778,-46.508 -13.142,-36.287 0,-23.525" style="fill:rgb(3,4,4);fill-rule:nonzero;"/>
        </g>
        <g transform="matrix(1,0,0,1,405.421,257.903)">
            <path d="M0,-39.151L-50.295,11.144C-51.894,9.831 -53.341,8.727 -54.359,8.08L-54.435,8.032C-57.69,5.777 -60.716,4.14 -63.647,3.065L-10.288,-50.295C-6.662,-46.764 -3.236,-43.053 0,-39.151" style="fill:rgb(255,221,24);fill-rule:nonzero;"/>
        </g>
        <g transform="matrix(0,-1,-1,0,297.638,160.656)">
            <circle cx="-146.982" cy="0" r="146.982" style="fill:none;stroke:rgb(3,4,4);stroke-width:4px;"/>
        </g>
        <g transform="matrix(0.273216,-0.982292,0.963427,0.267971,139.626,270.592)">
            <text x="0px" y="0px" style="font-family:'LucidaGrande-Bold', 'Lucida Grande', sans-serif;font-weight:600;font-size:20px;fill:rgb(3,4,4);">T</text>
        </g>
        <g transform="matrix(0.368551,-0.950642,0.932382,0.361476,143.739,255.988)">
            <text x="0px" y="0px" style="font-family:'LucidaGrande-Bold', 'Lucida Grande', sans-serif;font-weight:600;font-size:20px;fill:rgb(3,4,4);">U</text>
        </g>
        <g transform="matrix(0.457034,-0.911404,0.893904,0.448259,149.509,241.291)">
            <text x="0px" y="0px" style="font-family:'LucidaGrande-Bold', 'Lucida Grande', sans-serif;font-weight:600;font-size:20px;fill:rgb(3,4,4);">Z</text>
        </g>
        <g transform="matrix(0.544455,-0.86204,0.845485,0.534,156.026,228.22)">
            <text x="0px" y="0px" style="font-family:'LucidaGrande-Bold', 'Lucida Grande', sans-serif;font-weight:600;font-size:20px;fill:rgb(3,4,4);">O</text>
        </g>
        <g transform="matrix(0.663526,-0.774131,0.759261,0.650786,170.169,207.236)">
            <text x="0px" y="0px" style="font-family:'LucidaGrande-Bold', 'Lucida Grande', sans-serif;font-weight:600;font-size:20px;fill:rgb(3,4,4);">Y</text>
        </g>
        <g transform="matrix(0.727901,-0.713941,0.700226,0.713921,178.585,197.324)">
            <text x="0px" y="0px" style="font-family:'LucidaGrande-Bold', 'Lucida Grande', sans-serif;font-weight:600;font-size:20px;fill:rgb(3,4,4);">A</text>
        </g>
        <g transform="matrix(0.821622,-0.603726,0.592131,0.805842,196.31,180.902)">
            <text x="0px" y="0px" style="font-family:'LucidaGrande-Bold', 'Lucida Grande', sans-serif;font-weight:600;font-size:20px;fill:rgb(3,4,4);">T</text>
        </g>
        <g transform="matrix(0.869541,-0.532396,0.522171,0.852841,206.487,173.328)">
            <text x="0px" y="0px" style="font-family:'LucidaGrande-Bold', 'Lucida Grande', sans-serif;font-weight:600;font-size:20px;fill:rgb(3,4,4);">A</text>
        </g>
        <g transform="matrix(0.909577,-0.460659,0.451814,0.892112,221.333,164.519)">
            <text x="0px" y="0px" style="font-family:'LucidaGrande-Bold', 'Lucida Grande', sans-serif;font-weight:600;font-size:20px;fill:rgb(3,4,4);">I</text>
        </g>
        <g transform="matrix(0.939343,-0.396454,0.388844,0.921303,229.236,160.495)">
            <text x="0px" y="0px" style="font-family:'LucidaGrande-Bold', 'Lucida Grande', sans-serif;font-weight:600;font-size:20px;fill:rgb(3,4,4);">F</text>
        </g>
        <g transform="matrix(0.968958,-0.317286,0.311191,0.950347,239.772,155.951)">
            <text x="0px" y="0px" style="font-family:'LucidaGrande-Bold', 'Lucida Grande', sans-serif;font-weight:600;font-size:20px;fill:rgb(3,4,4);">A</text>
        </g>
        <g transform="matrix(1.00432,-0.17574,0.172365,0.985033,262.953,149.099)">
            <text x="0px" y="0px" style="font-family:'LucidaGrande-Bold', 'Lucida Grande', sans-serif;font-weight:600;font-size:20px;fill:rgb(3,4,4);">Y</text>
        </g>
        <g transform="matrix(1.01577,-0.0879899,0.0862999,0.996269,275.731,146.801)">
            <text x="0px" y="0px" style="font-family:'LucidaGrande-Bold', 'Lucida Grande', sans-serif;font-weight:600;font-size:20px;fill:rgb(3,4,4);">A</text>
        </g>
        <g transform="matrix(1.01694,0.07334,-0.071935,0.997409,299.838,145.25)">
            <text x="0px" y="0px" style="font-family:'LucidaGrande-Bold', 'Lucida Grande', sans-serif;font-weight:600;font-size:20px;fill:rgb(3,4,4);">M</text>
        </g>
        <g transform="matrix(0.997666,0.21026,-0.20622,0.978506,320.672,146.78)">
            <text x="0px" y="0px" style="font-family:'LucidaGrande-Bold', 'Lucida Grande', sans-serif;font-weight:600;font-size:20px;fill:rgb(3,4,4);">W</text>
        </g>
        <g transform="matrix(0.967164,0.322705,-0.31651,0.948589,341.627,151.364)">
            <text x="0px" y="0px" style="font-family:'LucidaGrande-Bold', 'Lucida Grande', sans-serif;font-weight:600;font-size:20px;fill:rgb(3,4,4);">A</text>
        </g>
        <g transform="matrix(0.932381,0.412571,-0.404651,0.914471,357.879,156.969)">
            <text x="0px" y="0px" style="font-family:'LucidaGrande-Bold', 'Lucida Grande', sans-serif;font-weight:600;font-size:20px;fill:rgb(3,4,4);">L</text>
        </g>
        <g transform="matrix(0.90176,0.47579,-0.466655,0.88444,370.056,162.51)">
            <text x="0px" y="0px" style="font-family:'LucidaGrande-Bold', 'Lucida Grande', sans-serif;font-weight:600;font-size:20px;fill:rgb(3,4,4);">I</text>
        </g>
        <g transform="matrix(0.854163,0.556724,-0.546034,0.837763,377.954,166.451)">
            <text x="0px" y="0px" style="font-family:'LucidaGrande-Bold', 'Lucida Grande', sans-serif;font-weight:600;font-size:20px;fill:rgb(3,4,4);">M</text>
        </g>
        <g transform="matrix(0.787699,0.647359,-0.634924,0.772574,394.76,177.609)">
            <text x="0px" y="0px" style="font-family:'LucidaGrande-Bold', 'Lucida Grande', sans-serif;font-weight:600;font-size:20px;fill:rgb(3,4,4);">U</text>
        </g>
        <g transform="matrix(0.684776,0.755401,-0.740891,0.671626,412.532,192.997)">
            <text x="0px" y="0px" style="font-family:'LucidaGrande-Bold', 'Lucida Grande', sans-serif;font-weight:600;font-size:20px;fill:rgb(3,4,4);">N</text>
        </g>
        <g transform="matrix(0.60665,0.819465,-0.803725,0.595,424.066,205.932)">
            <text x="0px" y="0px" style="font-family:'LucidaGrande-Bold', 'Lucida Grande', sans-serif;font-weight:600;font-size:20px;fill:rgb(3,4,4);">Y</text>
        </g>
        <g transform="matrix(0.53255,0.869445,-0.85275,0.52232,432.917,218.071)">
            <text x="0px" y="0px" style="font-family:'LucidaGrande-Bold', 'Lucida Grande', sans-serif;font-weight:600;font-size:20px;fill:rgb(3,4,4);">E</text>
        </g>
        <g transform="matrix(0.453905,0.912971,-0.895436,0.44519,439.923,229.59)">
            <text x="0px" y="0px" style="font-family:'LucidaGrande-Bold', 'Lucida Grande', sans-serif;font-weight:600;font-size:20px;fill:rgb(3,4,4);">R</text>
        </g>
        <g transform="matrix(0.371475,0.949501,-0.931266,0.36434,446.53,243.127)">
            <text x="0px" y="0px" style="font-family:'LucidaGrande-Bold', 'Lucida Grande', sans-serif;font-weight:600;font-size:20px;fill:rgb(3,4,4);">E</text>
        </g>
        <g transform="matrix(0.285965,0.978656,-0.959861,0.280475,451.399,255.686)">
            <text x="0px" y="0px" style="font-family:'LucidaGrande-Bold', 'Lucida Grande', sans-serif;font-weight:600;font-size:20px;fill:rgb(3,4,4);">R</text>
        </g>
        <g transform="matrix(0.198135,1.00015,-0.980936,0.19433,455.521,270.197)">
            <text x="0px" y="0px" style="font-family:'LucidaGrande-Bold', 'Lucida Grande', sans-serif;font-weight:600;font-size:20px;fill:rgb(3,4,4);">E</text>
        </g>
        <g transform="matrix(0.77227,0.66569,-0.65291,0.757435,175.585,435.663)">
            <text x="0px" y="0px" style="font-family:'LucidaGrande-Bold', 'Lucida Grande', sans-serif;font-weight:600;font-size:20px;fill:rgb(3,4,4);">Y</text>
        </g>
        <g transform="matrix(0.825555,0.598335,-0.586845,0.8097,186.24,444.867)">
            <text x="0px" y="0px" style="font-family:'LucidaGrande-Bold', 'Lucida Grande', sans-serif;font-weight:600;font-size:20px;fill:rgb(3,4,4);">A</text>
        </g>
        <g transform="matrix(0.902384,0.474594,-0.465479,0.885059,207.711,459.477)">
            <text x="0px" y="0px" style="font-family:'LucidaGrande-Bold', 'Lucida Grande', sans-serif;font-weight:600;font-size:20px;fill:rgb(3,4,4);">U</text>
        </g>
        <g transform="matrix(0.943622,0.386171,-0.378756,0.925497,222.582,467.215)">
            <text x="0px" y="0px" style="font-family:'LucidaGrande-Bold', 'Lucida Grande', sans-serif;font-weight:600;font-size:20px;fill:rgb(3,4,4);">A</text>
        </g>
        <g transform="matrix(0.978737,0.285685,-0.2802,0.959942,239.797,474.092)">
            <text x="0px" y="0px" style="font-family:'LucidaGrande-Bold', 'Lucida Grande', sans-serif;font-weight:600;font-size:20px;fill:rgb(3,4,4);">N</text>
        </g>
        <g transform="matrix(1.00313,0.182435,-0.17893,0.983862,257.711,479.156)">
            <text x="0px" y="0px" style="font-family:'LucidaGrande-Bold', 'Lucida Grande', sans-serif;font-weight:600;font-size:20px;fill:rgb(3,4,4);">D</text>
        </g>
        <g transform="matrix(1.01434,0.103215,-0.10123,0.994863,275.75,482.158)">
            <text x="0px" y="0px" style="font-family:'LucidaGrande-Bold', 'Lucida Grande', sans-serif;font-weight:600;font-size:20px;fill:rgb(3,4,4);">I</text>
        </g>
        <g transform="matrix(1.01907,0.0321801,-0.0315651,0.999502,285.456,483.151)">
            <text x="0px" y="0px" style="font-family:'LucidaGrande-Bold', 'Lucida Grande', sans-serif;font-weight:600;font-size:20px;fill:rgb(3,4,4);">S</text>
        </g>
        <g transform="matrix(1.01769,-0.062085,0.06089,0.998144,301.185,483.568)">
            <text x="0px" y="0px" style="font-family:'LucidaGrande-Bold', 'Lucida Grande', sans-serif;font-weight:600;font-size:20px;fill:rgb(3,4,4);">H</text>
        </g>
        <g transform="matrix(1.00993,-0.13991,0.137225,0.99054,318.965,482.225)">
            <text x="0px" y="0px" style="font-family:'LucidaGrande-Bold', 'Lucida Grande', sans-serif;font-weight:600;font-size:20px;fill:rgb(3,4,4);">I</text>
        </g>
        <g transform="matrix(0.986881,-0.256155,0.251235,0.967926,336.07,479.455)">
            <text x="0px" y="0px" style="font-family:'LucidaGrande-Bold', 'Lucida Grande', sans-serif;font-weight:600;font-size:20px;fill:rgb(3,4,4);">B</text>
        </g>
        <g transform="matrix(0.957284,-0.35092,0.34418,0.938904,352.378,475.098)">
            <text x="0px" y="0px" style="font-family:'LucidaGrande-Bold', 'Lucida Grande', sans-serif;font-weight:600;font-size:20px;fill:rgb(3,4,4);">U</text>
        </g>
        <g transform="matrix(0.916482,-0.446771,0.438191,0.898882,369.082,468.833)">
            <text x="0px" y="0px" style="font-family:'LucidaGrande-Bold', 'Lucida Grande', sans-serif;font-weight:600;font-size:20px;fill:rgb(3,4,4);">N</text>
        </g>
        <g transform="matrix(0.878355,-0.51772,0.507775,0.86149,385.511,460.514)">
            <text x="0px" y="0px" style="font-family:'LucidaGrande-Bold', 'Lucida Grande', sans-serif;font-weight:600;font-size:20px;fill:rgb(3,4,4);">I</text>
        </g>
        <g transform="matrix(0.84162,-0.575515,0.56446,0.82546,393.883,455.568)">
            <text x="0px" y="0px" style="font-family:'LucidaGrande-Bold', 'Lucida Grande', sans-serif;font-weight:600;font-size:20px;fill:rgb(3,4,4);">F</text>
        </g>
        <g transform="matrix(0.786618,-0.648668,0.636213,0.771513,405.912,447.269)">
            <text x="0px" y="0px" style="font-family:'LucidaGrande-Bold', 'Lucida Grande', sans-serif;font-weight:600;font-size:20px;fill:rgb(3,4,4);">U</text>
        </g>
        <g transform="matrix(1,0,0,1,200.219,397.654)">
            <path d="M0,-0.567C1.881,-0.567 1.881,0 3.762,0C5.643,0 5.643,-0.567 7.524,-0.567C9.405,-0.567 9.405,0 11.286,0C13.167,0 13.167,-0.567 15.048,-0.567C16.929,-0.567 16.929,0 18.81,0C20.689,0 20.689,-0.567 22.567,-0.567C24.448,-0.567 24.448,0 26.329,0C28.209,0 28.209,-0.567 30.089,-0.567C31.971,-0.567 31.971,0 33.852,0C35.733,0 35.733,-0.567 37.614,-0.567C39.495,-0.567 39.495,0 41.377,0C43.259,0 43.259,-0.567 45.141,-0.567C47.023,-0.567 47.023,0 48.906,0C50.788,0 50.788,-0.567 52.67,-0.567C54.552,-0.567 54.552,0 56.434,0C58.316,0 58.316,-0.567 60.198,-0.567C62.081,-0.567 62.081,0 63.963,0C65.849,0 65.849,-0.567 67.734,-0.567C69.62,-0.567 69.62,0 71.505,0" style="fill:none;fill-rule:nonzero;stroke:rgb(3,4,5);stroke-width:0.5px;"/>
        </g>
        <g transform="matrix(1,0,0,1,198.041,394.072)">
            <path d="M0,-0.567C1.8,-0.567 1.8,0 3.6,0C5.4,0 5.4,-0.567 7.199,-0.567C9,-0.567 9,0 10.8,0C12.598,0 12.598,-0.567 14.396,-0.567C16.196,-0.567 16.196,0 17.996,0C19.794,0 19.794,-0.567 21.592,-0.567C23.392,-0.567 23.392,0 25.192,0C26.991,0 26.991,-0.567 28.79,-0.567C30.591,-0.567 30.591,0 32.392,0C34.191,0 34.191,-0.567 35.991,-0.567C37.791,-0.567 37.791,0 39.592,0C41.393,0 41.393,-0.567 43.195,-0.567C44.996,-0.567 44.996,0 46.797,0C48.599,0 48.599,-0.567 50.4,-0.567C52.201,-0.567 52.201,0 54.002,0C55.803,0 55.803,-0.567 57.604,-0.567C59.406,-0.567 59.406,0 61.207,0C63.012,0 63.012,-0.567 64.816,-0.567C66.621,-0.567 66.621,0 68.425,0" style="fill:none;fill-rule:nonzero;stroke:rgb(3,4,5);stroke-width:0.5px;"/>
        </g>
        <g transform="matrix(1,0,0,1,195.584,390.743)">
            <path d="M0,-0.567C1.872,-0.567 1.872,0 3.743,0C5.615,0 5.615,-0.567 7.487,-0.567C9.359,-0.567 9.359,0 11.231,0C13.102,0 13.102,-0.567 14.974,-0.567C16.846,-0.567 16.846,0 18.717,0C20.587,0 20.587,-0.567 22.456,-0.567C24.328,-0.567 24.328,0 26.2,0C28.07,0 28.07,-0.567 29.941,-0.567C31.813,-0.567 31.813,0 33.686,0C35.557,0 35.557,-0.567 37.428,-0.567C39.301,-0.567 39.301,0 41.173,0C43.046,0 43.046,-0.567 44.919,-0.567C46.792,-0.567 46.792,0 48.665,0C50.538,0 50.538,-0.567 52.411,-0.567C54.284,-0.567 54.284,0 56.156,0C58.029,0 58.029,-0.567 59.902,-0.567C61.775,-0.567 61.775,0 63.648,0C65.525,0 65.525,-0.567 67.401,-0.567C69.277,-0.567 69.277,0 71.154,0" style="fill:none;fill-rule:nonzero;stroke:rgb(3,4,5);stroke-width:0.5px;"/>
        </g>
        <g transform="matrix(1,0,0,1,208.782,387.415)">
            <path d="M0,-0.567C1.495,-0.567 1.495,0 2.991,0C4.485,0 4.485,-0.567 5.979,-0.567C7.472,-0.567 7.472,0 8.965,0C10.459,0 10.459,-0.567 11.953,-0.567C13.449,-0.567 13.449,0 14.945,0C16.439,0 16.439,-0.567 17.933,-0.567C19.429,-0.567 19.429,0 20.924,0C22.419,0 22.419,-0.567 23.914,-0.567C25.411,-0.567 25.411,0 26.907,0C28.403,0 28.403,-0.567 29.898,-0.567C31.394,-0.567 31.394,0 32.89,0C34.387,0 34.387,-0.567 35.884,-0.567C37.381,-0.567 37.381,0 38.878,0C40.373,0 40.373,-0.567 41.868,-0.567C43.365,-0.567 43.365,0 44.862,0C46.359,0 46.359,-0.567 47.856,-0.567C49.353,-0.567 49.353,0 50.85,0C52.35,0 52.35,-0.567 53.85,-0.567C55.35,-0.567 55.35,0 56.85,0" style="fill:none;fill-rule:nonzero;stroke:rgb(3,4,5);stroke-width:0.5px;"/>
        </g>
        <g transform="matrix(1,0,0,1,289.061,371.085)">
            <path d="M0,-73.817C-9.616,-72.197 -6.725,-60.159 -5.699,-53.295C-5.501,-51.649 -5.514,-49.98 -5.691,-48.343C-6.47,-41.846 -9.261,-35.736 -9.295,-29.134C-9.589,-22.602 -8.497,-16.105 -8.577,-9.547C-8.698,-6.349 -8.937,-2.604 -10.329,0.128C-9.451,-3.031 -9.264,-6.301 -9.359,-9.544C-9.805,-19.287 -11.77,-29.402 -8.343,-38.892C-7.302,-41.98 -6.313,-45.128 -6.036,-48.377C-5.878,-49.995 -5.948,-51.623 -6.25,-53.214C-7.492,-59.313 -9.737,-67.293 -4.63,-72.227C-3.32,-73.307 -1.664,-73.945 0.001,-73.917L0,-73.817Z" style="fill:rgb(3,4,5);fill-rule:nonzero;"/>
        </g>
        <g transform="matrix(0,-1,-1,0,286.886,302.876)">
            <circle cx="-2.381" cy="0" r="2.381" style="fill:none;stroke:rgb(3,4,5);stroke-width:0.5px;"/>
        </g>
        <g transform="matrix(0,-1,-1,0,285.116,331.843)">
            <circle cx="-2.381" cy="0" r="2.381" style="fill:none;stroke:rgb(3,4,5);stroke-width:0.5px;"/>
        </g>
        <g transform="matrix(0,-1,-1,0,285.116,359.199)">
            <circle cx="-2.381" cy="0" r="2.381" style="fill:none;stroke:rgb(3,4,5);stroke-width:0.5px;"/>
        </g>
    </g>
</svg>
