<?xml version="1.0" encoding="UTF-8" standalone="no"?>
<!DOCTYPE svg PUBLIC "-//W3C//DTD SVG 1.1//EN" "http://www.w3.org/Graphics/SVG/1.1/DTD/svg11.dtd">
<svg width="100%" height="100%" viewBox="0 0 3835 1334" version="1.1" xmlns="http://www.w3.org/2000/svg" xmlns:xlink="http://www.w3.org/1999/xlink" xml:space="preserve" xmlns:serif="http://www.serif.com/" style="fill-rule:evenodd;clip-rule:evenodd;stroke-linejoin:round;stroke-miterlimit:2;">
    <g transform="matrix(0.1,0,0,-0.1,0,1334)">
        <path d="M1540,11850L1540,4850L4018,4852L6495,4855L6498,5403L6500,5950L2840,5950L2840,11850L1540,11850Z" style="fill:white;fill-rule:nonzero;"/>
        <path d="M7530,11850L7530,4850L8178,4852L8825,4855L8828,8353L8830,11850L7530,11850Z" style="fill:white;fill-rule:nonzero;"/>
        <path d="M13610,11843C13511,11836 13298,11807 13170,11784C12407,11645 11695,11270 11183,10737C10636,10166 10305,9436 10230,8630C10213,8452 10222,7923 10244,7760C10335,7100 10579,6526 10986,6015C11098,5874 11363,5610 11505,5496C11903,5179 12395,4935 12895,4807C13259,4714 13452,4689 13879,4683C14332,4676 14563,4696 14923,4776C15054,4805 15355,4893 15369,4906C15371,4908 15319,4969 15254,5042C15188,5114 15074,5242 15000,5325C14926,5407 14849,5493 14829,5515C14792,5556 14529,5852 14523,5859C14522,5861 14465,5855 14398,5846C13921,5778 13448,5824 13037,5979C12551,6161 12129,6517 11863,6968C11563,7477 11456,8112 11565,8743C11690,9471 12133,10093 12762,10425C13049,10576 13343,10664 13676,10700C13829,10717 14261,10708 14400,10685C15455,10515 16209,9766 16391,8706C16418,8551 16429,8145 16410,7977C16386,7756 16355,7613 16284,7402C16245,7287 16241,7266 16252,7250C16259,7240 16380,7105 16520,6949C16660,6794 16815,6621 16864,6566C16913,6510 16989,6426 17033,6378C17076,6330 17118,6283 17125,6273C17132,6263 17140,6257 17143,6260C17157,6277 17233,6396 17268,6457C17510,6873 17662,7351 17714,7858C17735,8059 17735,8470 17715,8668C17678,9021 17602,9333 17479,9640C17365,9923 17163,10267 16964,10515C16860,10645 16620,10888 16500,10986C15900,11477 15209,11758 14411,11835C14271,11849 13753,11854 13610,11843Z" style="fill:white;fill-rule:nonzero;"/>
        <path d="M19080,9738C19080,7444 19080,7471 19136,7131C19324,5992 19982,5215 21020,4905C21664,4713 22513,4704 23190,4882C23549,4976 23908,5155 24185,5377C24701,5790 25017,6369 25145,7133C25205,7494 25203,7411 25207,9728L25211,11850L23931,11850L23927,9768C23924,7877 23922,7672 23906,7540C23866,7201 23789,6924 23674,6700C23433,6236 23031,5977 22445,5909C22299,5892 21969,5895 21825,5914C21427,5967 21128,6103 20894,6335C20628,6600 20483,6931 20403,7455C20388,7555 20386,7762 20383,9708L20380,11850L19080,11850L19080,9738Z" style="fill:white;fill-rule:nonzero;"/>
        <rect x="27030" y="4850" width="1290" height="7000" style="fill:white;fill-rule:nonzero;"/>
        <path d="M30212,8353L30215,4855L31715,4852C33234,4849 33575,4854 33855,4886C35437,5062 36597,5982 36969,7355C37003,7482 37043,7685 37066,7850C37091,8032 37096,8541 37075,8755C37003,9485 36744,10107 36293,10631C35757,11253 34933,11675 34000,11805C33682,11849 33638,11850 31882,11850L30210,11850L30212,8353ZM33545,10740C34681,10634 35471,10001 35710,9005C35759,8803 35772,8693 35777,8429C35784,8097 35766,7919 35699,7655C35589,7224 35353,6835 35031,6558C34659,6236 34175,6039 33595,5973C33464,5958 33325,5956 32480,5955L31515,5955L31512,8353L31510,10750L32472,10750C33051,10750 33479,10746 33545,10740Z" style="fill:white;fill-rule:nonzero;"/>
        <path d="M14940,7822C14829,7721 14125,7093 14096,7069C14077,7053 14081,7047 14241,6869C14783,6264 15197,5802 15350,5631C15446,5523 15754,5179 16035,4866C16315,4553 16576,4261 16614,4218L16683,4140L16759,4207C16801,4244 16860,4297 16890,4325C16920,4352 17089,4503 17265,4660C17440,4817 17600,4959 17619,4976L17653,5007L17425,5261C17299,5401 17032,5700 16830,5925C15445,7474 15057,7905 15047,7907C15040,7908 14992,7870 14940,7822Z" style="fill:white;fill-rule:nonzero;"/>
        <path d="M11256,3280C11085,3253 10927,3184 10802,3084C10356,2723 10392,1994 10872,1683C11105,1532 11413,1491 11716,1571C11834,1602 11999,1683 12068,1744L12090,1763L12090,2470L11720,2470L11720,1942L11673,1922C11568,1878 11394,1866 11272,1895C11088,1938 10940,2081 10894,2260C10871,2346 10872,2487 10894,2565C10947,2747 11088,2881 11272,2925C11352,2944 11509,2944 11580,2925C11664,2903 11750,2856 11815,2797L11875,2743L11999,2861L12122,2979L12092,3016C11999,3128 11846,3217 11666,3261C11572,3284 11348,3294 11256,3280Z" style="fill:white;fill-rule:nonzero;"/>
        <path d="M21634,3275C21179,3195 20881,2823 20903,2365C20914,2129 20998,1938 21161,1780C21382,1565 21742,1479 22071,1563C22167,1588 22285,1641 22350,1688C22394,1720 22510,1832 22510,1842C22510,1851 22296,2061 22274,2073C22263,2079 22241,2064 22197,2023C22085,1919 21983,1880 21825,1880C21568,1880 21367,2027 21305,2261C21297,2291 21290,2358 21290,2410C21290,2566 21331,2677 21426,2779C21522,2883 21664,2940 21827,2940C21982,2940 22099,2895 22205,2794L22262,2740L22293,2766C22367,2828 22510,2967 22510,2977C22510,2983 22474,3022 22429,3064C22335,3152 22197,3227 22065,3261C21959,3288 21747,3295 21634,3275Z" style="fill:white;fill-rule:nonzero;"/>
        <path d="M27096,3279C26898,3250 26720,3163 26582,3028C26408,2857 26321,2628 26333,2370C26344,2133 26424,1946 26582,1793C26663,1714 26709,1681 26811,1629C26919,1575 27056,1541 27196,1533C27650,1508 28032,1772 28142,2185C28172,2300 28172,2521 28141,2635C28049,2978 27786,3211 27421,3275C27331,3291 27190,3293 27096,3279ZM27393,2925C27628,2864 27780,2663 27780,2414C27779,2101 27563,1880 27256,1880C27090,1880 26973,1925 26870,2029C26800,2100 26750,2187 26730,2275C26715,2339 26715,2481 26730,2545C26771,2727 26917,2875 27100,2924C27172,2943 27321,2944 27393,2925Z" style="fill:white;fill-rule:nonzero;"/>
        <path d="M30452,3279C30153,3233 29898,3048 29775,2789C29715,2661 29697,2576 29697,2410C29697,2293 29701,2250 29719,2185C29832,1766 30210,1507 30670,1533C30817,1542 30925,1570 31060,1637C31163,1688 31185,1704 31271,1789C31414,1932 31482,2060 31515,2247C31534,2356 31534,2464 31515,2575C31483,2759 31402,2909 31261,3043C31186,3114 31153,3137 31058,3184C30994,3216 30909,3249 30860,3260C30761,3285 30550,3294 30452,3279ZM30787,2915C30881,2883 30952,2838 31012,2771C31100,2673 31140,2561 31140,2410C31140,2246 31096,2135 30991,2029C30886,1925 30774,1880 30615,1880C30457,1880 30328,1930 30230,2029C30130,2130 30080,2257 30080,2410C30080,2563 30130,2690 30230,2791C30329,2891 30451,2938 30613,2939C30693,2940 30726,2935 30787,2915Z" style="fill:white;fill-rule:nonzero;"/>
        <path d="M32445,3274C32230,3236 32059,3145 31923,2996C31771,2830 31688,2586 31705,2352C31740,1846 32151,1503 32685,1534C32907,1546 33109,1613 33257,1724L33299,1755L33300,2113L33300,2470L33118,2468L32935,2465L32925,1935L32855,1911C32762,1878 32583,1870 32490,1894C32244,1957 32090,2156 32090,2410C32091,2669 32241,2863 32490,2926C32583,2949 32763,2941 32845,2910C32913,2884 32985,2839 33050,2781L33095,2741L33341,2985L33267,3055C33178,3139 33108,3182 32990,3226C32830,3287 32620,3305 32445,3274Z" style="fill:white;fill-rule:nonzero;"/>
        <path d="M36268,3279C36058,3248 35890,3154 35805,3021C35688,2835 35715,2579 35865,2441C35963,2352 36052,2315 36348,2240C36629,2168 36700,2127 36700,2039C36700,1921 36599,1866 36385,1866C36198,1866 36037,1914 35893,2015C35857,2040 35826,2060 35825,2058C35823,2056 35792,1988 35755,1905L35689,1755L35722,1727C35895,1580 36276,1497 36561,1545C36827,1589 36989,1708 37056,1906C37079,1976 37082,1996 37078,2082C37074,2170 37069,2188 37036,2254C36963,2402 36834,2480 36532,2556C36273,2622 36208,2645 36158,2689C36118,2725 36115,2731 36116,2778C36117,2867 36175,2919 36301,2946C36447,2977 36631,2947 36803,2862C36856,2836 36900,2815 36900,2815C36900,2816 36927,2883 36960,2964C36993,3046 37020,3116 37020,3120C37020,3136 36813,3231 36737,3250C36585,3288 36404,3299 36268,3279Z" style="fill:white;fill-rule:nonzero;"/>
        <rect x="1560" y="1550" width="380" height="1720" style="fill:white;fill-rule:nonzero;"/>
        <path d="M2210,3270L2210,1550L2590,1550L2592,2065L2595,2580L2710,2438C2826,2295 3090,1970 3312,1698L3433,1550L3740,1550L3738,2408L3735,3265L3548,3268L3360,3270L3358,2753L3355,2236L3184,2446C3091,2561 2904,2790 2770,2955C2636,3120 2522,3258 2516,3262C2510,3266 2439,3270 2358,3270L2210,3270Z" style="fill:white;fill-rule:nonzero;"/>
        <path d="M3890,3270L3890,2930L4430,2930L4430,1550L4810,1550L4810,2930L5350,2930L5350,3270L3890,3270Z" style="fill:white;fill-rule:nonzero;"/>
        <path d="M5500,3270L5500,1550L6153,1552L6805,1555L6805,1885L6348,1888L5890,1890L5890,2260L6670,2260L6670,2590L5890,2590L5890,2930L6770,2930L6770,3270L5500,3270Z" style="fill:white;fill-rule:nonzero;"/>
        <path d="M7070,3270L7070,1550L8300,1550L8300,1890L7450,1890L7450,3270L7070,3270Z" style="fill:white;fill-rule:nonzero;"/>
        <path d="M8465,3258C8462,3251 8461,2865 8462,2400L8465,1555L9083,1552L9700,1550L9700,1890L8850,1890L8848,2578L8845,3265L8657,3268C8513,3270 8468,3268 8465,3258Z" style="fill:white;fill-rule:nonzero;"/>
        <path d="M9867,3263C9863,3260 9860,2873 9860,2403L9860,1550L10240,1550L10240,3270L10057,3270C9956,3270 9870,3267 9867,3263Z" style="fill:white;fill-rule:nonzero;"/>
        <path d="M12410,3270L12410,1550L13710,1550L13710,1890L12790,1890L12790,2260L13580,2260L13580,2590L12790,2590L12790,2930L13680,2930L13680,3270L12410,3270Z" style="fill:white;fill-rule:nonzero;"/>
        <path d="M13925,3258C13922,3251 13921,2865 13922,2400L13925,1555L14113,1552L14300,1550L14300,2060C14300,2344 14304,2570 14309,2570C14314,2570 14411,2454 14526,2313C14641,2172 14827,1944 14940,1806L15145,1555L15298,1552L15450,1549L15450,3270L15263,3268L15075,3265L15070,2754L15065,2242L14804,2564C14660,2740 14472,2972 14386,3078L14229,3270L14079,3270C13969,3270 13928,3267 13925,3258Z" style="fill:white;fill-rule:nonzero;"/>
        <path d="M15650,3270L15650,2930L16190,2930L16190,1550L16570,1550L16570,2930L17120,2930L17118,3098L17115,3265L16383,3268L15650,3270Z" style="fill:white;fill-rule:nonzero;"/>
        <path d="M17797,3263C17793,3260 17790,3183 17790,3093L17790,2930L18330,2930L18332,2243L18335,1555L18715,1555L18718,2243L18720,2930L19260,2930L19258,3098L19255,3265L18529,3268C18130,3269 17800,3267 17797,3263Z" style="fill:white;fill-rule:nonzero;"/>
        <path d="M19455,3258C19452,3251 19451,2865 19452,2400L19455,1555L20108,1552L20760,1550L20760,1890L19840,1890L19840,2260L20620,2260L20620,2590L19840,2590L19840,2930L20720,2930L20720,3270L20090,3270C19595,3270 19458,3267 19455,3258Z" style="fill:white;fill-rule:nonzero;"/>
        <path d="M22715,3258C22712,3251 22711,2865 22712,2400L22715,1555L23095,1555L23098,1903L23100,2250L23860,2250L23860,1550L24240,1550L24240,3270L24053,3268L23865,3265L23862,2928L23860,2590L23100,2590L23098,2928L23095,3265L22907,3268C22763,3270 22718,3268 22715,3258Z" style="fill:white;fill-rule:nonzero;"/>
        <path d="M24560,3270L24560,1550L24748,1552L24935,1555L24945,2577L25115,2367C25209,2252 25337,2094 25401,2016C25464,1939 25576,1802 25649,1712L25781,1549L26085,1555L26085,3265L25898,3268L25710,3270L25708,2753L25705,2235L25493,2495C25377,2638 25195,2861 25090,2990C24985,3119 24890,3235 24879,3248C24861,3269 24853,3270 24710,3270L24560,3270Z" style="fill:white;fill-rule:nonzero;"/>
        <path d="M28417,3263C28413,3260 28410,2873 28410,2403L28410,1550L29650,1550L29650,1890L28790,1890L28790,3270L28607,3270C28506,3270 28420,3267 28417,3263Z" style="fill:white;fill-rule:nonzero;"/>
        <path d="M33627,3263C33623,3260 33620,2873 33620,2403L33620,1550L34000,1550L34000,3270L33817,3270C33716,3270 33630,3267 33627,3263Z" style="fill:white;fill-rule:nonzero;"/>
        <path d="M34277,3263C34273,3260 34270,2873 34270,2403L34270,1550L34923,1552L35575,1555L35578,1723L35580,1890L34650,1890L34650,2260L35440,2260L35440,2590L34650,2590L34650,2930L35540,2930L35540,3270L34912,3270C34566,3270 34280,3267 34277,3263Z" style="fill:white;fill-rule:nonzero;"/>
    </g>
</svg>
