<?xml version="1.0" encoding="UTF-8" standalone="no"?>
<!DOCTYPE svg PUBLIC "-//W3C//DTD SVG 1.1//EN" "http://www.w3.org/Graphics/SVG/1.1/DTD/svg11.dtd">
<svg width="100%" height="100%" viewBox="0 0 200 200" version="1.1" xmlns="http://www.w3.org/2000/svg" xmlns:xlink="http://www.w3.org/1999/xlink" xml:space="preserve" xmlns:serif="http://www.serif.com/" style="fill-rule:evenodd;clip-rule:evenodd;stroke-linejoin:round;stroke-miterlimit:2;">
    <g transform="matrix(0.947368,0,0,0.947368,13.9299,-11.0835)">
        <g transform="matrix(0.0253039,0,0,-0.0253039,-262.783,319.547)">
            <path d="M13610,11843C13511,11836 13298,11807 13170,11784C12407,11645 11695,11270 11183,10737C10636,10166 10305,9436 10230,8630C10213,8452 10222,7923 10244,7760C10335,7100 10579,6526 10986,6015C11098,5874 11363,5610 11505,5496C11903,5179 12395,4935 12895,4807C13259,4714 13452,4689 13879,4683C14332,4676 14563,4696 14923,4776C15054,4805 15355,4893 15369,4906C15371,4908 15319,4969 15254,5042C15188,5114 15074,5242 15000,5325C14926,5407 14849,5493 14829,5515C14792,5556 14529,5852 14523,5859C14522,5861 14465,5855 14398,5846C13921,5778 13448,5824 13037,5979C12551,6161 12129,6517 11863,6968C11563,7477 11456,8112 11565,8743C11690,9471 12133,10093 12762,10425C13049,10576 13343,10664 13676,10700C13829,10717 14261,10708 14400,10685C15455,10515 16209,9766 16391,8706C16418,8551 16429,8145 16410,7977C16386,7756 16355,7613 16284,7402C16245,7287 16241,7266 16252,7250C16259,7240 16380,7105 16520,6949C16660,6794 16815,6621 16864,6566C16913,6510 16989,6426 17033,6378C17076,6330 17118,6283 17125,6273C17132,6263 17140,6257 17143,6260C17157,6277 17233,6396 17268,6457C17510,6873 17662,7351 17714,7858C17735,8059 17735,8470 17715,8668C17678,9021 17602,9333 17479,9640C17365,9923 17163,10267 16964,10515C16860,10645 16620,10888 16500,10986C15900,11477 15209,11758 14411,11835C14271,11849 13753,11854 13610,11843Z" style="fill:rgb(201,23,125);fill-rule:nonzero;"/>
        </g>
        <g transform="matrix(0.0253039,0,0,-0.0253039,-262.783,319.547)">
            <path d="M14940,7822C14829,7721 14125,7093 14096,7069C14077,7053 14081,7047 14241,6869C14783,6264 15197,5802 15350,5631C15446,5523 15754,5179 16035,4866C16315,4553 16576,4261 16614,4218L16683,4140L16759,4207C16801,4244 16860,4297 16890,4325C16920,4352 17089,4503 17265,4660C17440,4817 17600,4959 17619,4976L17653,5007L17425,5261C17299,5401 17032,5700 16830,5925C15445,7474 15057,7905 15047,7907C15040,7908 14992,7870 14940,7822Z" style="fill:rgb(201,23,125);fill-rule:nonzero;"/>
        </g>
    </g>
</svg>
