<svg xmlns="http://www.w3.org/2000/svg" xml:space="preserve" style="fill-rule:evenodd;clip-rule:evenodd;stroke-linejoin:round;stroke-miterlimit:2" viewBox="0 0 3835 1334"><path d="M1540 11850V4850l2478 2 2477 3 3 548 2 547H2840v5900H1540ZM7530 11850V4850l648 2 647 3 3 3498 2 3497H7530Z" style="fill:#293d88;fill-rule:nonzero" transform="matrix(.1 0 0 -.1 0 1334)"/><path d="M13610 11843c-99-7-312-36-440-59-763-139-1475-514-1987-1047-547-571-878-1301-953-2107-17-178-8-707 14-870 91-660 335-1234 742-1745 112-141 377-405 519-519 398-317 890-561 1390-689 364-93 557-118 984-124 453-7 684 13 1044 93 131 29 432 117 446 130 2 2-50 63-115 136-66 72-180 200-254 283-74 82-151 168-171 190-37 41-300 337-306 344-1 2-58-4-125-13-477-68-950-22-1361 133-486 182-908 538-1174 989-300 509-407 1144-298 1775 125 728 568 1350 1197 1682 287 151 581 239 914 275 153 17 585 8 724-15 1055-170 1809-919 1991-1979 27-155 38-561 19-729-24-221-55-364-126-575-39-115-43-136-32-152 7-10 128-145 268-301 140-155 295-328 344-383 49-56 125-140 169-188 43-48 85-95 92-105s15-16 18-13c14 17 90 136 125 197 242 416 394 894 446 1401 21 201 21 612 1 810-37 353-113 665-236 972-114 283-316 627-515 875-104 130-344 373-464 471-600 491-1291 772-2089 849-140 14-658 19-801 8Z" style="fill:#c9177d;fill-rule:nonzero" transform="matrix(.1 0 0 -.1 0 1334)"/><path d="M19080 9738c0-2294 0-2267 56-2607 188-1139 846-1916 1884-2226 644-192 1493-201 2170-23 359 94 718 273 995 495 516 413 832 992 960 1756 60 361 58 278 62 2595l4 2122h-1280l-4-2082c-3-1891-5-2096-21-2228-40-339-117-616-232-840-241-464-643-723-1229-791-146-17-476-14-620 5-398 53-697 189-931 421-266 265-411 596-491 1120-15 100-17 307-20 2253l-3 2142h-1300V9738ZM27030 11850V4850h1290v7000h-1290ZM30212 8353l3-3498 1500-3c1519-3 1860 2 2140 34 1582 176 2742 1096 3114 2469 34 127 74 330 97 495 25 182 30 691 9 905-72 730-331 1352-782 1876-536 622-1360 1044-2293 1174-318 44-362 45-2118 45h-1672l2-3497Zm3333 2387c1136-106 1926-739 2165-1735 49-202 62-312 67-576 7-332-11-510-78-774-110-431-346-820-668-1097-372-322-856-519-1436-585-131-15-270-17-1115-18h-965l-3 2398-2 2397h962c579 0 1007-4 1073-10Z" style="fill:#293d88;fill-rule:nonzero" transform="matrix(.1 0 0 -.1 0 1334)"/><path d="M14940 7822c-111-101-815-729-844-753-19-16-15-22 145-200 542-605 956-1067 1109-1238 96-108 404-452 685-765 280-313 541-605 579-648l69-78 76 67c42 37 101 90 131 118 30 27 199 178 375 335 175 157 335 299 354 316l34 31-228 254c-126 140-393 439-595 664-1385 1549-1773 1980-1783 1982-7 1-55-37-107-85Z" style="fill:#c9177d;fill-rule:nonzero" transform="matrix(.1 0 0 -.1 0 1334)"/><path d="M11256 3280c-171-27-329-96-454-196-446-361-410-1090 70-1401 233-151 541-192 844-112 118 31 283 112 352 173l22 19v707h-370v-528l-47-20c-105-44-279-56-401-27-184 43-332 186-378 365-23 86-22 227 0 305 53 182 194 316 378 360 80 19 237 19 308 0 84-22 170-69 235-128l60-54 124 118 123 118-30 37c-93 112-246 201-426 245-94 23-318 33-410 19ZM21634 3275c-455-80-753-452-731-910 11-236 95-427 258-585 221-215 581-301 910-217 96 25 214 78 279 125 44 32 160 144 160 154 0 9-214 219-236 231-11 6-33-9-77-50-112-104-214-143-372-143-257 0-458 147-520 381-8 30-15 97-15 149 0 156 41 267 136 369 96 104 238 161 401 161 155 0 272-45 378-146l57-54 31 26c74 62 217 201 217 211 0 6-36 45-81 87-94 88-232 163-364 197-106 27-318 34-431 14ZM27096 3279c-198-29-376-116-514-251-174-171-261-400-249-658 11-237 91-424 249-577 81-79 127-112 229-164 108-54 245-88 385-96 454-25 836 239 946 652 30 115 30 336-1 450-92 343-355 576-720 640-90 16-231 18-325 4Zm297-354c235-61 387-262 387-511-1-313-217-534-524-534-166 0-283 45-386 149-70 71-120 158-140 246-15 64-15 206 0 270 41 182 187 330 370 379 72 19 221 20 293 1ZM30452 3279c-299-46-554-231-677-490-60-128-78-213-78-379 0-117 4-160 22-225 113-419 491-678 951-652 147 9 255 37 390 104 103 51 125 67 211 152 143 143 211 271 244 458 19 109 19 217 0 328-32 184-113 334-254 468-75 71-108 94-203 141-64 32-149 65-198 76-99 25-310 34-408 19Zm335-364c94-32 165-77 225-144 88-98 128-210 128-361 0-164-44-275-149-381-105-104-217-149-376-149-158 0-287 50-385 149-100 101-150 228-150 381s50 280 150 381c99 100 221 147 383 148 80 1 113-4 174-24ZM32445 3274c-215-38-386-129-522-278-152-166-235-410-218-644 35-506 446-849 980-818 222 12 424 79 572 190l42 31 1 358v357l-182-2-183-3-10-530-70-24c-93-33-272-41-365-17-246 63-400 262-400 516 1 259 151 453 400 516 93 23 273 15 355-16 68-26 140-71 205-129l45-40 246 244-74 70c-89 84-159 127-277 171-160 61-370 79-545 48ZM36268 3279c-210-31-378-125-463-258-117-186-90-442 60-580 98-89 187-126 483-201 281-72 352-113 352-201 0-118-101-173-315-173-187 0-348 48-492 149-36 25-67 45-68 43-2-2-33-70-70-153l-66-150 33-28c173-147 554-230 839-182 266 44 428 163 495 361 23 70 26 90 22 176-4 88-9 106-42 172-73 148-202 226-504 302-259 66-324 89-374 133-40 36-43 42-42 89 1 89 59 141 185 168 146 31 330 1 502-84 53-26 97-47 97-47 0 1 27 68 60 149 33 82 60 152 60 156 0 16-207 111-283 130-152 38-333 49-469 29ZM1560 3270V1550h380v1720h-380ZM2210 3270V1550h380l2 515 3 515 115-142c116-143 380-468 602-740l121-148h307l-2 858-3 857-187 3-188 2-2-517-3-517-171 210c-93 115-280 344-414 509s-248 303-254 307-77 8-158 8h-148ZM3890 3270v-340h540V1550h380v1380h540v340H3890ZM5500 3270V1550l653 2 652 3v330l-457 3-458 2v370h780v330h-780v340h880v340H5500ZM7070 3270V1550h1230v340h-850v1380h-380ZM8465 3258c-3-7-4-393-3-858l3-845 618-3 617-2v340h-850l-2 688-3 687-188 3c-144 2-189 0-192-10ZM9867 3263c-4-3-7-390-7-860v-853h380v1720h-183c-101 0-187-3-190-7ZM12410 3270V1550h1300v340h-920v370h790v330h-790v340h890v340h-1270ZM13925 3258c-3-7-4-393-3-858l3-845 188-3 187-2v510c0 284 4 510 9 510s102-116 217-257 301-369 414-507l205-251 153-3 152-3v1721l-187-2-188-3-5-511-5-512-261 322c-144 176-332 408-418 514l-157 192h-150c-110 0-151-3-154-12ZM15650 3270v-340h540V1550h380v1380h550l-2 168-3 167-732 3-733 2ZM17797 3263c-4-3-7-80-7-170v-163h540l2-687 3-688h380l3 688 2 687h540l-2 168-3 167-726 3c-399 1-729-1-732-5ZM19455 3258c-3-7-4-393-3-858l3-845 653-3 652-2v340h-920v370h780v330h-780v340h880v340h-630c-495 0-632-3-635-12ZM22715 3258c-3-7-4-393-3-858l3-845h380l3 348 2 347h760v-700h380v1720l-187-2-188-3-3-337-2-338h-760l-2 338-3 337-188 3c-144 2-189 0-192-10ZM24560 3270V1550l188 2 187 3 10 1022 170-210c94-115 222-273 286-351 63-77 175-214 248-304l132-163 304 6v1710l-187 3-188 2-2-517-3-518-212 260c-116 143-298 366-403 495s-200 245-211 258c-18 21-26 22-169 22h-150ZM28417 3263c-4-3-7-390-7-860v-853h1240v340h-860v1380h-183c-101 0-187-3-190-7ZM33627 3263c-4-3-7-390-7-860v-853h380v1720h-183c-101 0-187-3-190-7ZM34277 3263c-4-3-7-390-7-860v-853l653 2 652 3 3 168 2 167h-930v370h790v330h-790v340h890v340h-628c-346 0-632-3-635-7Z" style="fill:#293d88;fill-rule:nonzero" transform="matrix(.1 0 0 -.1 0 1334)"/></svg>